<?xml version="1.0" encoding="UTF-8"?>
<svg version="1.1" xmlns="http://www.w3.org/2000/svg" width="448" height="428">
<path d="M0 0 C147.84 0 295.68 0 448 0 C448 141.24 448 282.48 448 428 C300.16 428 152.32 428 0 428 C0 286.76 0 145.52 0 0 Z " fill="#FDFDFE" transform="translate(0,0)"/>
<path d="M0 0 C5.8543045 1.57836641 10.61517966 4.57085205 15.75 7.6875 C17.71268475 8.86471112 19.67626556 10.04042925 21.640625 11.21484375 C22.67251953 11.83214355 23.70441406 12.44944336 24.76757812 13.08544922 C30.30985253 16.36811658 35.90884171 19.55158215 41.5 22.75 C50.50915055 27.91734321 59.37400731 33.21274309 68 39 C65.46745586 41.86099696 62.64042118 43.46638382 59.3125 45.3125 C58.04486521 46.02347925 56.77799729 46.73582678 55.51171875 47.44921875 C54.80063965 47.84931152 54.08956055 48.2494043 53.35693359 48.66162109 C48.75555336 51.27450347 44.19313589 53.95457322 39.625 56.625 C38.61397217 57.21466553 37.60294434 57.80433105 36.5612793 58.41186523 C31.09587553 61.60055137 25.63769461 64.80100792 20.1875 68.015625 C19.08841309 68.66192871 17.98932617 69.30823242 16.85693359 69.97412109 C14.73275276 71.22346933 12.61061478 72.47629861 10.49072266 73.73291016 C9.5372998 74.29284668 8.58387695 74.8527832 7.6015625 75.4296875 C6.75932129 75.92710449 5.91708008 76.42452148 5.04931641 76.93701172 C3 78 3 78 1 78 C1.51648735 70.21191437 2.44876534 62.65074958 4 55 C-14.87001772 56.25800118 -32.08082096 59.1429801 -49 68 C-50.39412109 68.69222656 -50.39412109 68.69222656 -51.81640625 69.3984375 C-78.95370004 83.37240671 -97.13171097 107.77827785 -107.3125 136.0625 C-114.41740667 159.39817123 -114.52494902 185.93733599 -106 209 C-105.70222656 209.825 -105.40445313 210.65 -105.09765625 211.5 C-103.13421273 216.67276686 -100.77426937 221.42894324 -97.953125 226.1875 C-97 228 -97 228 -97 230 C-96.34 230 -95.68 230 -95 230 C-94.84144531 229.37996094 -94.68289062 228.75992188 -94.51953125 228.12109375 C-92.03248761 218.68132038 -89.05321376 209.38216828 -85.58984375 200.25390625 C-83.26497492 194.10897339 -81.17660921 187.87931515 -79.04882812 181.6640625 C-77.50620998 177.19373941 -75.93038911 172.76658377 -74.1171875 168.3984375 C-72.25829536 163.82822554 -70.69377949 159.18659519 -69.16015625 154.5 C-68.90889481 153.73287689 -68.65763336 152.96575378 -68.39875793 152.17538452 C-67.35523591 148.9806363 -66.31543199 145.78474787 -65.28442383 142.5859375 C-56.75103102 116.16549913 -56.75103102 116.16549913 -45.25 108.0625 C-39.95667217 106.33198898 -34.23078292 105.82242492 -28.91015625 107.76171875 C-27.125 108.75 -27.125 108.75 -24 111 C-23.18402344 111.58652344 -22.36804688 112.17304688 -21.52734375 112.77734375 C-18.72210337 115.24439441 -17.241125 117.55258382 -15.4375 120.8125 C-14.84582031 121.87339844 -14.25414062 122.93429688 -13.64453125 124.02734375 C-13.10183594 125.00832031 -12.55914062 125.98929687 -12 127 C-11.210114 128.29275636 -10.41883164 129.58466275 -9.625 130.875 C-7.99421186 134.01113104 -7.34139542 136.50069699 -7 140 C-6.34 140 -5.68 140 -5 140 C-0.10604952 148.51909898 4.62316804 157.0740204 8.9609375 165.890625 C12.8035343 173.68341131 16.90369556 181.33839355 21 189 C23.48765951 186.51234049 23.42291435 185.28612352 23.88671875 181.83984375 C24.93914872 174.9688185 26.54758599 168.28513912 28.29418945 161.56420898 C28.81043161 159.57048809 29.31282603 157.57361321 29.81445312 155.57617188 C31.70940585 148.15676511 33.9933849 141.01487273 36.84204102 133.89624023 C38.64487193 129.38707238 40.19692258 124.79581595 41.75976562 120.19921875 C51.88799116 90.95223323 70.07368462 61.81466337 94 42 C94.79792969 41.30261719 95.59585938 40.60523438 96.41796875 39.88671875 C113.51760996 25.26235795 139.17326798 10.80463659 162.33984375 11.859375 C162.88769531 11.90578125 163.43554688 11.9521875 164 12 C161.63365042 14.36634958 159.68430639 14.99804711 156.5625 16.1875 C129.96490663 27.07984776 110.12856628 49.701065 96 74 C95.62456055 74.63873047 95.24912109 75.27746094 94.86230469 75.93554688 C89.89502031 84.40987349 85.56733666 92.82865576 82 102 C81.21125216 103.85541019 80.41949107 105.7095418 79.625 107.5625 C76.1461105 115.9444494 73.03334886 124.44869187 70 133 C69.69239746 133.84852539 69.38479492 134.69705078 69.06787109 135.57128906 C63.85127114 150.09679811 61.19898978 164.44525448 59.36962891 179.75708008 C59 182 59 182 58 183 C57.45012272 185.45651699 56.95681933 187.90093888 56.5 190.375 C56.30470703 191.37466797 56.30470703 191.37466797 56.10546875 192.39453125 C52.24689473 213.0125682 50.36106976 239.63535085 59.1953125 259.109375 C60 261 60 261 60 263 C60.66 263 61.32 263 62 263 C63.1484375 264.57421875 63.1484375 264.57421875 64.375 266.6875 C69.97729925 275.91099557 76.50386364 280.79000567 86.7578125 284.26953125 C101.14879504 287.51183695 114.8235386 283.98930064 128 278 C128.66 278 129.32 278 130 278 C130 277.34 130 276.68 130 276 C131.60198617 274.89208433 133.25982842 273.86457308 134.9375 272.875 C141.15183378 269.0341408 147.28780407 264.7357891 151.625 258.76171875 C152.305625 257.88966797 152.305625 257.88966797 153 257 C153.66 257 154.32 257 155 257 C146.17971905 276.48774116 127.25283141 291.78140003 108 300 C92.30171347 305.31689019 76.1159685 304.27137742 61.125 297.5 C44.78350347 288.9058969 33.71074139 274.30676186 24 259 C23.15260285 257.69123845 22.30493258 256.38265371 21.45703125 255.07421875 C9 235.68281942 9 235.68281942 9 230 C8.34 230 7.68 230 7 230 C6.71809814 229.35748291 6.43619629 228.71496582 6.14575195 228.05297852 C2.2618782 219.34088307 -2.15379488 210.94802627 -6.62304688 202.52539062 C-7.18701172 201.45353516 -7.75097656 200.38167969 -8.33203125 199.27734375 C-8.84483643 198.31046631 -9.3576416 197.34358887 -9.88598633 196.34741211 C-11 194 -11 194 -11 192 C-11.66 192 -12.32 192 -13 192 C-13.77903646 190.44192708 -14.5580397 188.88383755 -15.33691406 187.32568359 C-16.03886912 185.92210365 -16.7413576 184.51879037 -17.44433594 183.11572266 C-19.51449888 178.98168088 -21.57313652 174.8423339 -23.6171875 170.6953125 C-24.05498535 169.81069336 -24.4927832 168.92607422 -24.94384766 168.01464844 C-25.79835412 166.28774677 -26.64972117 164.55928721 -27.49755859 162.82910156 C-29.73492501 158.3181214 -32.09631991 154.11576673 -35 150 C-39.09387235 158.34546129 -42.16128706 166.90514523 -45.10507202 175.70019531 C-46.41622502 179.6166601 -47.74558385 183.52693804 -49.07421875 187.4375 C-49.331996 188.19740234 -49.58977325 188.95730469 -49.85536194 189.74023438 C-51.71086924 195.19443869 -53.65105339 200.61052896 -55.6875 206 C-58.97399305 214.7181532 -61.89733284 223.55169917 -64.80541992 232.40234375 C-67.08136898 239.31703568 -69.48817099 246.16787884 -72 253 C-72.93768422 255.59788004 -73.84902748 258.20134816 -74.75 260.8125 C-75.17796875 262.03582031 -75.6059375 263.25914062 -76.046875 264.51953125 C-77.00500461 268.01827502 -77.53025526 270.41354624 -77 274 C-66.90409345 288.89661314 -46.995832 303.43239986 -30 309 C-28.63683049 309.69084901 -27.28273786 310.39985273 -25.9375 311.125 C-22.29864418 313.0010638 -19.07863329 313.49911521 -15 314 C-13.55304314 314.44980307 -12.1157249 314.93135714 -10.6875 315.4375 C-5.87645869 317.12965936 -1.0138261 318.11028138 4 319 C4 319.33 4 319.66 4 320 C-28.84136322 322.93809412 -64.04572028 306.04916878 -88.78808594 285.51611328 C-92.31013661 282.46387498 -95.66646687 279.25742507 -99 276 C-99.71285156 275.33742188 -100.42570312 274.67484375 -101.16015625 273.9921875 C-117.45152512 258.51052881 -130.16783635 237.21202161 -137 216 C-137.3609375 214.88753906 -137.721875 213.77507812 -138.09375 212.62890625 C-149.5934252 174.95004622 -144.79575388 135.63871433 -126.88964844 100.84228516 C-108.46092024 66.69688733 -76.31302718 41.0097192 -39.39453125 29.53515625 C-24.86345514 25.21762094 -11.11320633 23.67420633 4 24 C3.87882813 23.34402832 3.75765625 22.68805664 3.6328125 22.01220703 C3.0867123 19.05013854 2.54332306 16.0875791 2 13.125 C1.80921875 12.09246094 1.6184375 11.05992188 1.421875 9.99609375 C1.24140625 9.00996094 1.0609375 8.02382812 0.875 7.0078125 C0.70742187 6.09660645 0.53984375 5.18540039 0.3671875 4.24658203 C0 2 0 2 0 0 Z " fill="#354C73" transform="translate(166,57)"/>
<path d="M0 0 C-2.36634958 2.36634958 -4.31569361 2.99804711 -7.4375 4.1875 C-34.03509337 15.07984776 -53.87143372 37.701065 -68 62 C-68.37543945 62.63873047 -68.75087891 63.27746094 -69.13769531 63.93554688 C-74.10497969 72.40987349 -78.43266334 80.82865576 -82 90 C-82.78874784 91.85541019 -83.58050893 93.7095418 -84.375 95.5625 C-87.8538895 103.9444494 -90.96665114 112.44869187 -94 121 C-94.30760254 121.84852539 -94.61520508 122.69705078 -94.93212891 123.57128906 C-100.14872886 138.09679811 -102.80101022 152.44525448 -104.63037109 167.75708008 C-105 170 -105 170 -106 171 C-106.54987728 173.45651699 -107.04318067 175.90093888 -107.5 178.375 C-107.63019531 179.04144531 -107.76039063 179.70789063 -107.89453125 180.39453125 C-109.99610564 191.62415599 -110.13220152 202.8051101 -110.0625 214.1875 C-110.05747088 215.63085781 -110.05291049 217.07421733 -110.04882812 218.51757812 C-110.0379438 222.01175505 -110.0207585 225.50586612 -110 229 C-112.45378929 225.31931607 -112.30646214 223.31946281 -112.4140625 218.92578125 C-112.43342865 218.2419487 -112.4527948 217.55811615 -112.4727478 216.8535614 C-112.53243997 214.67333375 -112.57888631 212.49305298 -112.625 210.3125 C-112.66318943 208.8326595 -112.70224174 207.352841 -112.7421875 205.87304688 C-112.83813202 202.2488995 -112.92220151 198.62458743 -113 195 C-113.25974609 195.53834473 -113.51949219 196.07668945 -113.78710938 196.63134766 C-114.13580078 197.34339355 -114.48449219 198.05543945 -114.84375 198.7890625 C-115.18599609 199.49240723 -115.52824219 200.19575195 -115.88085938 200.92041016 C-118.28788077 205.3931432 -121.1742519 209.0921461 -126 211 C-129.72432979 211.52728961 -133.27623393 211.54385853 -137 211 C-139.875 208.8125 -139.875 208.8125 -142 206 C-142.78375 205.278125 -143.5675 204.55625 -144.375 203.8125 C-151.04991062 196.66081005 -155.56199775 188.36772032 -159.97949219 179.71386719 C-160.34333008 179.00391602 -160.70716797 178.29396484 -161.08203125 177.5625 C-161.40405518 176.92441406 -161.7260791 176.28632813 -162.05786133 175.62890625 C-163.0142539 173.81370074 -163.0142539 173.81370074 -165 172 C-165.73267575 170.33899076 -166.46046559 168.67548327 -167.15234375 166.99707031 C-168.61589792 163.54895018 -170.31779197 160.22044378 -172 156.875 C-172.34289062 156.18535156 -172.68578125 155.49570313 -173.0390625 154.78515625 C-174.48587415 151.89705513 -175.94899143 149.08411509 -177.625 146.3203125 C-179 144 -179 144 -179.95703125 141.58203125 C-184.07937616 131.3765257 -191.52865883 119.1595537 -201.95703125 114.62109375 C-206.64795246 113.19498195 -210.5504099 113.45995663 -215.1875 115.1875 C-220.20951137 118.42390733 -222.9026616 121.45703422 -225 127 C-226.485 127.99 -226.485 127.99 -228 129 C-224.6811975 115.29307587 -221.00554813 104.40394534 -209.1875 96 C-203.90465192 94.3426359 -198.19892477 93.83403677 -192.91015625 95.76171875 C-191.125 96.75 -191.125 96.75 -188 99 C-187.18402344 99.58652344 -186.36804688 100.17304688 -185.52734375 100.77734375 C-182.72210337 103.24439441 -181.241125 105.55258382 -179.4375 108.8125 C-178.84582031 109.87339844 -178.25414062 110.93429688 -177.64453125 112.02734375 C-177.10183594 113.00832031 -176.55914062 113.98929687 -176 115 C-175.210114 116.29275636 -174.41883164 117.58466275 -173.625 118.875 C-171.99421186 122.01113104 -171.34139542 124.50069699 -171 128 C-170.34 128 -169.68 128 -169 128 C-164.10604952 136.51909898 -159.37683196 145.0740204 -155.0390625 153.890625 C-151.1964657 161.68341131 -147.09630444 169.33839355 -143 177 C-140.51234049 174.51234049 -140.57708565 173.28612352 -140.11328125 169.83984375 C-139.06085128 162.9688185 -137.45241401 156.28513912 -135.70581055 149.56420898 C-135.18956839 147.57048809 -134.68717397 145.57361321 -134.18554688 143.57617188 C-132.29059415 136.15676511 -130.0066151 129.01487273 -127.15795898 121.89624023 C-125.35512807 117.38707238 -123.80307742 112.79581595 -122.24023438 108.19921875 C-112.11200884 78.95223323 -93.92631538 49.81466337 -70 30 C-69.20207031 29.30261719 -68.40414062 28.60523437 -67.58203125 27.88671875 C-50.19765415 13.01883936 -23.60995897 -1.99990241 0 0 Z " fill="#4B7ACC" transform="translate(330,69)"/>
<path d="M0 0 C5.08338319 2.66706651 9.36572654 7.22364058 11.9296875 12.3515625 C12.54004408 18.77204424 12.00430054 23.67535382 8.9296875 29.3515625 C8.2696875 30.0115625 7.6096875 30.6715625 6.9296875 31.3515625 C6.50677176 33.14790755 6.09301866 34.94721619 5.73974609 36.75854492 C1.6735498 57.48884421 -10.62975478 77.4864937 -27.8203125 89.9140625 C-29.55912151 91.07680807 -31.30969569 92.22211021 -33.0703125 93.3515625 C-34.01003906 93.96257812 -34.94976562 94.57359375 -35.91796875 95.203125 C-53.32637612 105.9830347 -76.17504725 109.43531454 -96.2890625 105.32397461 C-110.35700956 101.94829535 -122.44135972 95.07975657 -133.0703125 85.3515625 C-137.50044485 87.27330941 -140.55486204 90.41188948 -144.046875 93.671875 C-146.0703125 95.3515625 -146.0703125 95.3515625 -148.0703125 95.3515625 C-148.80865402 90.64787282 -149.24007973 86.05865335 -149.38671875 81.30078125 C-149.40754517 80.64817825 -149.42837158 79.99557526 -149.4498291 79.32319641 C-149.51513154 77.22858951 -149.57431358 75.13386956 -149.6328125 73.0390625 C-149.67568056 71.5996088 -149.71856801 70.16015568 -149.76147461 68.72070312 C-150.05327858 58.59637397 -150.19691507 48.4797681 -150.0703125 38.3515625 C-139.79743899 40.2998661 -130.04037267 43.87126167 -120.55859375 48.24609375 C-114.80927938 50.80034174 -108.91880964 53.03598105 -103.0703125 55.3515625 C-101.40334187 56.01746876 -99.73654021 56.68379949 -98.0703125 57.3515625 C-99.37563798 61.26753894 -101.04296524 61.88986596 -104.5078125 64.0390625 C-105.49652344 64.66167969 -106.48523438 65.28429687 -107.50390625 65.92578125 C-110.0703125 67.3515625 -110.0703125 67.3515625 -112.0703125 67.3515625 C-104.80420967 75.15589517 -94.39063293 79.21407003 -83.8359375 79.7421875 C-68.44345324 80.14238446 -68.44345324 80.14238446 -54.0703125 75.3515625 C-53.58691406 74.866875 -53.10351562 74.3821875 -52.60546875 73.8828125 C-50.75000283 72.03206787 -48.82483173 71.07143779 -46.5078125 69.8515625 C-34.13559541 62.58017175 -25.85920693 49.97936019 -22.0703125 36.3515625 C-21.50864553 31.38292025 -21.50864553 31.38292025 -23.57421875 27.02734375 C-26.16855235 22.38734763 -25.56991293 17.52348245 -25.0703125 12.3515625 C-23.32929948 6.82128585 -19.61765873 3.71550296 -15.0703125 0.3515625 C-10.72927474 -1.81895638 -4.56073933 -1.42845798 0 0 Z " fill="#334665" transform="translate(414.0703125,198.6484375)"/>
<path d="M0 0 C0.66 0 1.32 0 2 0 C5.06732196 10.27870165 7.68591117 20.63292603 10.14697266 31.07177734 C10.75763294 33.65731794 11.37663161 36.24077451 11.99609375 38.82421875 C12.38851993 40.47904839 12.78046525 42.13399215 13.171875 43.7890625 C13.3561908 44.55570221 13.54050659 45.32234192 13.73040771 46.11221313 C14.53054123 49.5337112 15 52.46371458 15 56 C7.2891255 56.19493784 0.39525712 56.25618014 -7 54 C-13.35874886 52.40932699 -19.7654689 51.36037378 -26.25 50.4375 C-36.7352459 48.92520492 -36.7352459 48.92520492 -41 48 C-39.47854371 44.3501677 -37.28813476 42.14171371 -34.4375 39.4375 C-30.95762374 36.21673663 -30.95762374 36.21673663 -29 32 C-46.95869774 29.02459446 -64.9307285 28.16736644 -80.69921875 38.82421875 C-83.22848504 40.79572953 -85.62718129 42.84325585 -88 45 C-88.73347656 45.66386719 -89.46695313 46.32773438 -90.22265625 47.01171875 C-96.87198037 53.33789814 -101.36627923 60.19349619 -104 69 C-104.309375 70.01900391 -104.309375 70.01900391 -104.625 71.05859375 C-106.81559098 79.83617009 -106.16588009 89.02404401 -106 98 C-108.96175123 97.38722388 -110.38058783 96.74627478 -113 95 C-118.43334336 94.33437674 -123.36852704 94.07229969 -128.1875 96.8125 C-130.18654008 98.95666241 -130.18654008 98.95666241 -131 102 C-131.99 102 -132.98 102 -134 102 C-135.12324823 75.08006011 -130.21435331 51.72170891 -112 31 C-95.96201739 13.90779655 -74.50213334 3.43527513 -50.99072266 2.59814453 C-38.2557858 2.41120498 -26.69280679 5.04389073 -15.015625 10.16796875 C-13.02754324 10.98863041 -11.09641374 11.5325564 -9 12 C-8.37351562 11.13375 -7.74703125 10.2675 -7.1015625 9.375 C-6.27638032 8.24975157 -5.45084098 7.12476501 -4.625 6 C-4.2125 5.42765625 -3.8 4.8553125 -3.375 4.265625 C-2.29828281 2.80684688 -1.15333422 1.39899024 0 0 Z " fill="#3D5A8D" transform="translate(384,130)"/>
<path d="M0 0 C5.8543045 1.57836641 10.61517966 4.57085205 15.75 7.6875 C17.71268475 8.86471112 19.67626556 10.04042925 21.640625 11.21484375 C22.67251953 11.83214355 23.70441406 12.44944336 24.76757812 13.08544922 C30.30985253 16.36811658 35.90884171 19.55158215 41.5 22.75 C50.50915055 27.91734321 59.37400731 33.21274309 68 39 C65.46745586 41.86099696 62.64042118 43.46638382 59.3125 45.3125 C58.04486521 46.02347925 56.77799729 46.73582678 55.51171875 47.44921875 C54.80063965 47.84931152 54.08956055 48.2494043 53.35693359 48.66162109 C48.75555336 51.27450347 44.19313589 53.95457322 39.625 56.625 C38.61397217 57.21466553 37.60294434 57.80433105 36.5612793 58.41186523 C31.09587553 61.60055137 25.63769461 64.80100792 20.1875 68.015625 C19.08841309 68.66192871 17.98932617 69.30823242 16.85693359 69.97412109 C14.73275276 71.22346933 12.61061478 72.47629861 10.49072266 73.73291016 C9.5372998 74.29284668 8.58387695 74.8527832 7.6015625 75.4296875 C6.75932129 75.92710449 5.91708008 76.42452148 5.04931641 76.93701172 C3 78 3 78 1 78 C1.51648735 70.21191437 2.44876534 62.65074958 4 55 C-14.87001772 56.25800118 -32.08082096 59.1429801 -49 68 C-50.39412109 68.69222656 -50.39412109 68.69222656 -51.81640625 69.3984375 C-63.00159012 75.15809121 -72.42614428 82.84156321 -81 92 C-81.99 91.505 -81.99 91.505 -83 91 C-82.505 89.515 -82.505 89.515 -82 88 C-81.01 88 -80.02 88 -79 88 C-78.76152344 87.43796875 -78.52304688 86.8759375 -78.27734375 86.296875 C-76.71903908 83.49478586 -74.82243325 81.52106593 -72.5625 79.25 C-71.78003906 78.45078125 -70.99757813 77.6515625 -70.19140625 76.828125 C-68 75 -68 75 -65 75 C-64.505 73.515 -64.505 73.515 -64 72 C-61.85546875 70.71875 -61.85546875 70.71875 -59.1875 69.5 C-55.48399344 67.79367462 -55.48399344 67.79367462 -52.11962891 65.52514648 C-49.93413662 63.95260901 -48.09013438 63.15757578 -45.54296875 62.31640625 C-44.68461426 62.03039551 -43.82625977 61.74438477 -42.94189453 61.44970703 C-42.03294434 61.15692871 -41.12399414 60.86415039 -40.1875 60.5625 C-39.25276855 60.25683105 -38.31803711 59.95116211 -37.35498047 59.63623047 C-13.2281007 51.83910389 -13.2281007 51.83910389 -1.6875 51.875 C-0.84574219 51.87242188 -0.00398437 51.86984375 0.86328125 51.8671875 C3 52 3 52 5 53 C5 53.66 5 54.32 5 55 C5.66 55 6.32 55 7 55 C6.48446121 61.49850211 5.53332291 67.66226532 4 74 C4.56847656 73.59007812 5.13695312 73.18015625 5.72265625 72.7578125 C10.43455739 69.46970786 14.37025993 67.19781704 20 66 C20 65.34 20 64.68 20 64 C21.07314453 63.50693359 21.07314453 63.50693359 22.16796875 63.00390625 C29.29185787 59.6032399 35.54725098 55.68971229 41.93359375 51.109375 C45.29034864 48.80026972 48.71704955 46.91760961 52.390625 45.16796875 C54.19704408 44.09224849 54.19704408 44.09224849 54.734375 41.86328125 C54.82203125 41.24839844 54.9096875 40.63351563 55 40 C54.21979492 40.16516113 53.43958984 40.33032227 52.63574219 40.50048828 C47.99988809 41.13740458 43.49956718 41.06552491 38.828125 40.9921875 C36.79216423 40.97217643 34.75619338 40.95317125 32.72021484 40.93505859 C31.66195496 40.92464539 30.60369507 40.91423218 29.5133667 40.90350342 C-1.19858934 39.84963121 -1.19858934 39.84963121 -31 46 C-32.4375 46.47916667 -33.875 46.95833333 -35.3125 47.4375 C-36.07691406 47.69402344 -36.84132813 47.95054688 -37.62890625 48.21484375 C-39.21596345 48.74037669 -40.80723947 49.25332881 -42.40234375 49.75390625 C-47.43659314 51.35380913 -51.69288923 53.09066695 -55.8125 56.5 C-58 58 -58 58 -61.625 59.125 C-66.60142493 60.85512156 -69.87557648 64.22834554 -73.60546875 67.84375 C-76 70 -76 70 -78.375 71.37109375 C-82.01730446 73.63127375 -84.81534379 76.5185958 -87.8125 79.5625 C-88.42907471 80.18511719 -89.04564941 80.80773437 -89.6809082 81.44921875 C-96.1541605 88.06280565 -101.99596029 94.59151661 -106 103 C-108.0625 105.375 -108.0625 105.375 -110 107 C-110.66 107 -111.32 107 -112 107 C-112.33 107.66 -112.66 108.32 -113 109 C-112.36310966 106.09500018 -111.4481633 103.59921222 -110.125 100.9375 C-109.79757813 100.26589844 -109.47015625 99.59429687 -109.1328125 98.90234375 C-107.9527194 96.9206012 -106.63500045 95.61425171 -105 94 C-104.05652034 92.60104741 -103.14160197 91.18257396 -102.25 89.75 C-99.35644052 85.33008789 -96.14144587 81.31956099 -92 78 C-91.34 78 -90.68 78 -90 78 C-89.505 76.515 -89.505 76.515 -89 75 C-88.34 75 -87.68 75 -87 75 C-86.7834375 74.42765625 -86.566875 73.8553125 -86.34375 73.265625 C-84.55585116 70.25114441 -82.34765726 68.77333542 -79.5 66.75 C-78.5203125 66.04359375 -77.540625 65.3371875 -76.53125 64.609375 C-74 63 -74 63 -72 63 C-71.95875 62.401875 -71.9175 61.80375 -71.875 61.1875 C-71 59 -71 59 -68.375 57.4375 C-67.26125 56.963125 -66.1475 56.48875 -65 56 C-63.24236328 55.23816406 -63.24236328 55.23816406 -61.44921875 54.4609375 C-60.31097656 53.97882813 -59.17273438 53.49671875 -58 53 C-56.26959938 52.21103412 -54.5402243 51.41980955 -52.8125 50.625 C-49.25203252 49 -49.25203252 49 -47 49 C-46.505 48.01 -46.505 48.01 -46 47 C-43.6015625 46.1484375 -43.6015625 46.1484375 -40.625 45.375 C-39.15933594 44.98441406 -39.15933594 44.98441406 -37.6640625 44.5859375 C-35 44 -35 44 -32 44 C-31.67 43.01 -31.34 42.02 -31 41 C-29.329375 41.061875 -29.329375 41.061875 -27.625 41.125 C-24.38430748 41.13350389 -21.50789068 40.75187881 -18.3515625 40.03125 C-13.13867672 38.94990962 -8.06243721 38.56060006 -2.75 38.375 C-1.79818848 38.33777832 -0.84637695 38.30055664 0.13427734 38.26220703 C19.78179882 37.5606253 39.36420589 38.18849653 59 39 C59 38.01 59 37.02 59 36 C58.28070313 35.72027344 57.56140625 35.44054687 56.8203125 35.15234375 C54.11505529 34.04701013 51.49798176 32.84992682 48.875 31.5625 C48.02679688 31.15128906 47.17859375 30.74007812 46.3046875 30.31640625 C44 29 44 29 42.48828125 27.4453125 C40.58233764 25.59439614 38.83985368 25.0816946 36.3125 24.3125 C35.50425781 24.06113281 34.69601563 23.80976562 33.86328125 23.55078125 C33.24839844 23.36902344 32.63351563 23.18726562 32 23 C32 22.34 32 21.68 32 21 C31.401875 20.896875 30.80375 20.79375 30.1875 20.6875 C27.65084082 19.89026426 26.85460771 18.86001307 25 17 C23.80954693 16.21524322 22.58946998 15.4740946 21.34765625 14.7734375 C20.30641602 14.185625 20.30641602 14.185625 19.24414062 13.5859375 C18.16422852 12.98652344 18.16422852 12.98652344 17.0625 12.375 C16.34642578 11.96765625 15.63035156 11.5603125 14.89257812 11.140625 C11.59429241 9.29431863 8.72113118 7.79646529 5 7 C5.4299596 10.58299671 5.90160648 13.7410697 7.1875 17.125 C8 20 8 20 7.5 22.75 C5.42618622 25.86072067 3.57229203 26.01324801 0 27 C-2.36592849 27.41041617 -4.74267199 27.76154774 -7.125 28.0625 C-7.77662109 28.14701416 -8.42824219 28.23152832 -9.09960938 28.31860352 C-13.22903978 28.83780385 -17.34753552 29.17600979 -21.5 29.4375 C-26.32635015 29.79428664 -29.69039842 30.84519921 -34 33 C-35.33106622 33.34227417 -36.66400079 33.67751743 -38 34 C-38.61488281 34.32355469 -39.22976562 34.64710937 -39.86328125 34.98046875 C-41.99036102 35.99540078 -43.68625134 36.38190362 -46 36.75 C-51.20140634 37.82289735 -55.55149521 40.10913098 -60.2265625 42.5703125 C-63 44 -63 44 -66.5 45.3125 C-71.18705901 47.57233202 -75.04759566 50.66046415 -79.1328125 53.84375 C-82 56 -82 56 -84.56640625 57.484375 C-87.42001406 59.26158179 -89.48454387 61.32802303 -91.8125 63.75 C-94.91516202 66.93138628 -98.03420385 69.95548939 -101.4375 72.8125 C-104.34764992 75.30274853 -106.20072039 77.58136874 -108 81 C-109.33333333 82.66666667 -110.66666667 84.33333333 -112 86 C-112.474375 86.804375 -112.94875 87.60875 -113.4375 88.4375 C-115 91 -115 91 -117.5625 94 C-119.80803083 96.76373025 -120.74866647 98.74653282 -122 102 C-122.62519531 102.72703125 -123.25039062 103.4540625 -123.89453125 104.203125 C-126.3198551 107.424891 -127.37574347 110.36316308 -128.625 114.1875 C-130.79875195 120.79875195 -130.79875195 120.79875195 -133 123 C-134.47825688 127.34781434 -135.22882979 131.51189442 -135.72265625 136.04296875 C-136.15754701 139.11170496 -137.1426952 142.02464805 -138 145 C-138.51988278 147.64777507 -138.98739094 150.30047145 -139.4375 152.9609375 C-139.74990608 154.64879814 -140.08115789 156.33454179 -140.48583984 158.00268555 C-141.86816953 163.71091617 -142.40672903 169.20101505 -142.625 175.0625 C-142.66367188 175.92810547 -142.70234375 176.79371094 -142.7421875 177.68554688 C-142.83520481 179.79006359 -142.91862669 181.8950009 -143 184 C-143.33 184 -143.66 184 -144 184 C-144.72568244 139.79477508 -133.86169858 100.68950923 -102.54248047 68.19042969 C-77.58167023 42.9308779 -42.21964481 24.11932795 -6.04516602 23.87036133 C-2.69546297 23.87695182 0.65106562 23.9278074 4 24 C3.87882813 23.34402832 3.75765625 22.68805664 3.6328125 22.01220703 C3.0867123 19.05013854 2.54332306 16.0875791 2 13.125 C1.80921875 12.09246094 1.6184375 11.05992188 1.421875 9.99609375 C1.24140625 9.00996094 1.0609375 8.02382812 0.875 7.0078125 C0.70742187 6.09660645 0.53984375 5.18540039 0.3671875 4.24658203 C0 2 0 2 0 0 Z " fill="#5D91D7" transform="translate(166,57)"/>
<path d="M0 0 C0.66 0 1.32 0 2 0 C5.06732196 10.27870165 7.68591117 20.63292603 10.14697266 31.07177734 C10.75763294 33.65731794 11.37663161 36.24077451 11.99609375 38.82421875 C12.38851993 40.47904839 12.78046525 42.13399215 13.171875 43.7890625 C13.3561908 44.55570221 13.54050659 45.32234192 13.73040771 46.11221313 C14.53054123 49.5337112 15 52.46371458 15 56 C7.2891255 56.19493784 0.39525712 56.25618014 -7 54 C-8.66374198 53.61223022 -10.33054033 53.23736334 -12 52.875 C-12.763125 52.70742187 -13.52625 52.53984375 -14.3125 52.3671875 C-15.1478125 52.18542969 -15.1478125 52.18542969 -16 52 C-12.26665911 50.69425023 -9.22925049 51.2398752 -5.375 51.875 C-4.22773438 52.05804688 -3.08046875 52.24109375 -1.8984375 52.4296875 C1 53 1 53 3 54 C4.70363822 54.22622081 6.41328701 54.40888473 8.125 54.5625 C9.03507812 54.64628906 9.94515625 54.73007813 10.8828125 54.81640625 C11.58148438 54.87699219 12.28015625 54.93757813 13 55 C9.7731171 49.26897454 5.47267073 44.77961873 1 40 C0.33484375 39.28070313 -0.3303125 38.56140625 -1.015625 37.8203125 C-5.85075027 32.76898244 -11.1606759 28.82906498 -17 25 C-14 24 -14 24 -11.25 24.9375 C-7.70081534 27.18986719 -5.53860085 29.58586498 -2.87890625 32.79296875 C0.19772045 36.40688577 3.60673187 39.68605502 7 43 C8.42624952 40.14750095 7.64857912 38.29410242 7.0625 35.1875 C6.34925611 31.38510709 5.8783464 27.87144677 6 24 C5.34 24 4.68 24 4 24 C3.01 19.05 2.02 14.1 1 9 C-1.14660145 8.77137122 -1.14660145 8.77137122 -2.69921875 10.6015625 C-3.35535156 11.26929688 -4.01148438 11.93703125 -4.6875 12.625 C-6.859375 14.5625 -6.859375 14.5625 -9 16 C-12.4375 15.625 -12.4375 15.625 -16 14 C-17.45302045 13.5049562 -18.9117919 13.02656773 -20.375 12.5625 C-22.69923204 11.78380321 -25.01742709 10.99383034 -27.328125 10.17578125 C-28.08609375 9.91152344 -28.8440625 9.64726562 -29.625 9.375 C-30.29789062 9.13523438 -30.97078125 8.89546875 -31.6640625 8.6484375 C-46.69095208 4.47709357 -62.15411021 7.3411372 -77.00146484 10.6328125 C-79 11 -79 11 -82 11 C-82.33 11.66 -82.66 12.32 -83 13 C-83.66 12.34 -84.32 11.68 -85 11 C-64.95628702 1.55668644 -43.98986714 0.17308621 -23 7 C-20.29874017 7.98508459 -17.64813341 9.0127946 -15.015625 10.16796875 C-13.02754324 10.98863041 -11.09641374 11.5325564 -9 12 C-8.37351562 11.13375 -7.74703125 10.2675 -7.1015625 9.375 C-6.27638032 8.24975157 -5.45084098 7.12476501 -4.625 6 C-4.2125 5.42765625 -3.8 4.8553125 -3.375 4.265625 C-2.29828281 2.80684688 -1.15333422 1.39899024 0 0 Z " fill="#7297CA" transform="translate(384,130)"/>
<path d="M0 0 C2.921875 1.171875 2.921875 1.171875 5.75 2.75 C6.69359375 3.26046875 7.6371875 3.7709375 8.609375 4.296875 C11.13540284 6.09646346 12.04329948 7.08540073 13 10 C13 11.32 13 12.64 13 14 C13.66 14 14.32 14 15 14 C16.76462683 17.08809695 17 18.23312136 17 22 C17.99 21.67 18.98 21.34 20 21 C20.79953138 24.28696233 21.09658936 25.71023192 20 29 C20.66 29 21.32 29 22 29 C22.495 27.515 22.495 27.515 23 26 C22.46930939 29.82097239 21.50298434 32.06171403 19 35 C19.66 35 20.32 35 21 35 C19.49650623 38.66786393 17.36271208 40.68910393 14.375 43.25 C13.55773437 43.95640625 12.74046875 44.6628125 11.8984375 45.390625 C11.27195312 45.92171875 10.64546875 46.4528125 10 47 C8.71717836 43.15153509 9.51297911 41.71755223 11 38 C11.97691857 36.31970006 12.97388051 34.65071396 14 33 C15.84989522 27.45031434 15.96514041 21.96740161 13.375 16.6875 C9.42144079 12.21373563 5.74540837 8.35866548 -0.48828125 7.76171875 C-6.54656353 7.60251078 -10.29956464 7.7581437 -15 12 C-19.12038144 16.56582808 -20.15893188 19.7886142 -20.25 25.875 C-20.27578125 26.90367187 -20.3015625 27.93234375 -20.328125 28.9921875 C-19.95620773 32.40142913 -18.86339132 34.16649258 -17 37 C-15.80291967 44.182482 -19.25489613 50.48037832 -22 57 C-23.08243634 53.61638419 -22.93802776 50.88919805 -22.5625 47.375 C-22.03716227 41.89262937 -21.89041685 36.50350946 -22 31 C-22.66 31 -23.32 31 -24 31 C-24.33 32.32 -24.66 33.64 -25 35 C-27.40010413 31.3998438 -28.09056199 28.26396035 -28 24 C-27.2453303 21.15063814 -26.20853012 18.70710748 -25 16 C-24.34 16 -23.68 16 -23 16 C-22.8453125 15.1646875 -22.8453125 15.1646875 -22.6875 14.3125 C-21.50346037 10.32982123 -19.37175213 6.49759417 -16 4 C-14.00116131 3.65977214 -12.00109278 3.32670903 -10 3 C-9.34 2.484375 -8.68 1.96875 -8 1.4375 C-5.19176037 -0.58092223 -3.41630969 -0.27644052 0 0 Z " fill="#CBE1F8" transform="translate(410,191)"/>
<path d="M0 0 C3.3 0 6.6 0 10 0 C10 0.66 10 1.32 10 2 C9.2678125 2.41507812 8.535625 2.83015625 7.78125 3.2578125 C0.03456535 7.66604495 -7.67717036 12.13200647 -15.375 16.625 C-16.38578613 17.21442383 -17.39657227 17.80384766 -18.43798828 18.41113281 C-23.90344705 21.60038473 -29.36201837 24.80083864 -34.8125 28.015625 C-36.46113037 28.98508057 -36.46113037 28.98508057 -38.14306641 29.97412109 C-40.26724724 31.22346933 -42.38938522 32.47629861 -44.50927734 33.73291016 C-45.4627002 34.29284668 -46.41612305 34.8527832 -47.3984375 35.4296875 C-48.24067871 35.92710449 -49.08291992 36.42452148 -49.95068359 36.93701172 C-52 38 -52 38 -54 38 C-53.48351265 30.21191437 -52.55123466 22.65074958 -51 15 C-69.87001772 16.25800118 -87.08082096 19.1429801 -104 28 C-104.92941406 28.46148437 -105.85882813 28.92296875 -106.81640625 29.3984375 C-118.00159012 35.15809121 -127.42614428 42.84156321 -136 52 C-136.66 51.67 -137.32 51.34 -138 51 C-137.67 50.01 -137.34 49.02 -137 48 C-136.01 48 -135.02 48 -134 48 C-133.76152344 47.43796875 -133.52304688 46.8759375 -133.27734375 46.296875 C-131.71903908 43.49478586 -129.82243325 41.52106593 -127.5625 39.25 C-126.78003906 38.45078125 -125.99757813 37.6515625 -125.19140625 36.828125 C-123 35 -123 35 -120 35 C-119.67 34.01 -119.34 33.02 -119 32 C-116.85546875 30.71875 -116.85546875 30.71875 -114.1875 29.5 C-110.48399344 27.79367462 -110.48399344 27.79367462 -107.11962891 25.52514648 C-104.93413662 23.95260901 -103.09013438 23.15757578 -100.54296875 22.31640625 C-99.68461426 22.03039551 -98.82625977 21.74438477 -97.94189453 21.44970703 C-97.03294434 21.15692871 -96.12399414 20.86415039 -95.1875 20.5625 C-94.25276855 20.25683105 -93.31803711 19.95116211 -92.35498047 19.63623047 C-68.2281007 11.83910389 -68.2281007 11.83910389 -56.6875 11.875 C-55.84574219 11.87242188 -55.00398438 11.86984375 -54.13671875 11.8671875 C-52 12 -52 12 -50 13 C-50 13.66 -50 14.32 -50 15 C-49.34 15 -48.68 15 -48 15 C-48.51553879 21.49850211 -49.46667709 27.66226532 -51 34 C-50.43152344 33.59007812 -49.86304688 33.18015625 -49.27734375 32.7578125 C-44.56544261 29.46970786 -40.62974007 27.19781704 -35 26 C-35 25.34 -35 24.68 -35 24 C-34.28457031 23.67128906 -33.56914062 23.34257813 -32.83203125 23.00390625 C-25.70814213 19.6032399 -19.45274902 15.68971229 -13.06640625 11.109375 C-9.70965136 8.80026972 -6.28295045 6.91760961 -2.609375 5.16796875 C-0.52422238 3.91790545 -0.52422238 3.91790545 0 0 Z " fill="#4565A0" transform="translate(221,97)"/>
<path d="M0 0 C-2.33390426 2.46727022 -4.42068776 4.66556152 -7.375 6.37109375 C-10.31547215 8.19576174 -12.41660268 10.25733785 -14.8125 12.75 C-17.91516202 15.93138628 -21.03420385 18.95548939 -24.4375 21.8125 C-27.34764992 24.30274853 -29.20072039 26.58136874 -31 30 C-32.33333333 31.66666667 -33.66666667 33.33333333 -35 35 C-35.474375 35.804375 -35.94875 36.60875 -36.4375 37.4375 C-38 40 -38 40 -40.5625 43 C-42.80803083 45.76373025 -43.74866647 47.74653282 -45 51 C-45.62519531 51.72703125 -46.25039063 52.4540625 -46.89453125 53.203125 C-49.3198551 56.424891 -50.37574347 59.36316308 -51.625 63.1875 C-53.79875195 69.79875195 -53.79875195 69.79875195 -56 72 C-57.47825688 76.34781434 -58.22882979 80.51189442 -58.72265625 85.04296875 C-59.15754701 88.11170496 -60.1426952 91.02464805 -61 94 C-61.51988278 96.64777507 -61.98739094 99.30047145 -62.4375 101.9609375 C-62.74990608 103.64879814 -63.08115789 105.33454179 -63.48583984 107.00268555 C-64.86816953 112.71091617 -65.40672903 118.20101505 -65.625 124.0625 C-65.66367188 124.92810547 -65.70234375 125.79371094 -65.7421875 126.68554688 C-65.83520481 128.79006359 -65.91862669 130.8950009 -66 133 C-66.33 133 -66.66 133 -67 133 C-67.70589472 90.00015185 -57.66676115 50.99578265 -27.31640625 19.0703125 C-8.21042394 -0.5772034 -8.21042394 -0.5772034 0 0 Z " fill="#5984C3" transform="translate(89,108)"/>
<path d="M0 0 C0.99 0.33 1.98 0.66 3 1 C1.76636719 2.10794922 1.76636719 2.10794922 0.5078125 3.23828125 C-21.09023709 22.79129498 -38.93966493 46.91786591 -48.875 74.5625 C-50.76009636 79.72290646 -52.74446523 84.80919042 -54.875 89.875 C-58.19109327 98.04711375 -60.68967942 106.45146785 -63.19677734 114.90185547 C-64.84865936 120.43719667 -66.56698786 125.75734845 -69 131 C-69.33 131 -69.66 131 -70 131 C-70.35272258 121.08597619 -66.96502533 112.01811536 -63.140625 102.98828125 C-61.1946655 97.89013394 -59.66603016 92.65057883 -58.10595703 87.4230957 C-57.86216309 86.62347412 -57.61836914 85.82385254 -57.3671875 85 C-57.15175293 84.278125 -56.93631836 83.55625 -56.71435547 82.8125 C-56 81 -56 81 -54 79 C-53.41037762 77.2865924 -52.87776312 75.55337604 -52.375 73.8125 C-50.46673372 67.81198206 -47.80528949 62.53929122 -44.72998047 57.07739258 C-43.06058128 54.09518424 -41.56892537 51.39656937 -41 48 C-40.34 48 -39.68 48 -39 48 C-38.731875 47.2575 -38.46375 46.515 -38.1875 45.75 C-37 43 -37 43 -35.5625 41.125 C-33.79344194 38.89858424 -33.79344194 38.89858424 -32.5625 35.5 C-31.04259429 32.09541122 -29.71725309 30.45429311 -27 28 C-26.34 27.01 -25.68 26.02 -25 25 C-24.34 25 -23.68 25 -23 25 C-22.92394531 24.43152344 -22.84789062 23.86304687 -22.76953125 23.27734375 C-21.73502148 20.21582499 -20.02719095 18.77199538 -17.6875 16.5625 C-15.2592405 14.22572909 -13.04393183 12.05766052 -11 9.375 C-7.89119385 5.6832927 -4.15789907 2.46564181 0 0 Z " fill="#5173AC" transform="translate(296,86)"/>
<path d="M0 0 C0 0.66 0 1.32 0 2 C0.66 2 1.32 2 2 2 C2.144375 2.763125 2.28875 3.52625 2.4375 4.3125 C2.9632594 7.08172908 2.9632594 7.08172908 4 10 C1.35060873 14.47956287 -1.67445732 17.5657705 -6.625 19.1875 C-10.38868476 18.9784064 -12.07637004 18.33890397 -15 16 C-17.1519437 12.77208445 -17.20086443 11.71599191 -17 8 C-17.66 7.67 -18.32 7.34 -19 7 C-18.265611 5.67870176 -17.51183106 4.36816829 -16.75 3.0625 C-16.33234375 2.33160156 -15.9146875 1.60070312 -15.484375 0.84765625 C-14 -1 -14 -1 -12.05078125 -1.77734375 C-7.88736394 -2.22937191 -3.93332467 -1.31110822 0 0 Z " fill="#92D3F1" transform="translate(415,208)"/>
<path d="M0 0 C-1.11375 0.6496875 -1.11375 0.6496875 -2.25 1.3125 C-4.91993207 2.86223298 -4.91993207 2.86223298 -6.8125 4.5 C-9 6 -9 6 -12.625 7.125 C-17.60142493 8.85512156 -20.87557648 12.22834554 -24.60546875 15.84375 C-27 18 -27 18 -29.375 19.37109375 C-33.01730446 21.63127375 -35.81534379 24.5185958 -38.8125 27.5625 C-39.42907471 28.18511719 -40.04564941 28.80773437 -40.6809082 29.44921875 C-47.1541605 36.06280565 -52.99596029 42.59151661 -57 51 C-59.0625 53.375 -59.0625 53.375 -61 55 C-61.66 55 -62.32 55 -63 55 C-63.33 55.66 -63.66 56.32 -64 57 C-63.36310966 54.09500018 -62.4481633 51.59921222 -61.125 48.9375 C-60.79757813 48.26589844 -60.47015625 47.59429687 -60.1328125 46.90234375 C-58.9527194 44.9206012 -57.63500045 43.61425171 -56 42 C-55.05652034 40.60104741 -54.14160197 39.18257396 -53.25 37.75 C-50.35644052 33.33008789 -47.14144587 29.31956099 -43 26 C-42.34 26 -41.68 26 -41 26 C-40.67 25.01 -40.34 24.02 -40 23 C-39.34 23 -38.68 23 -38 23 C-37.7834375 22.42765625 -37.566875 21.8553125 -37.34375 21.265625 C-35.55585116 18.25114441 -33.34765726 16.77333542 -30.5 14.75 C-29.5203125 14.04359375 -28.540625 13.3371875 -27.53125 12.609375 C-25 11 -25 11 -23 11 C-22.96390625 10.40445313 -22.9278125 9.80890625 -22.890625 9.1953125 C-21.50321806 5.77547608 -19.06101959 5.29294785 -15.75 3.875 C-14.61046875 3.37742187 -13.4709375 2.87984375 -12.296875 2.3671875 C-10.66492188 1.69042969 -10.66492188 1.69042969 -9 1 C-8.08347656 0.60296875 -7.16695312 0.2059375 -6.22265625 -0.203125 C-3.68122535 -1.11428827 -2.49576627 -0.92435788 0 0 Z " fill="#446FC0" transform="translate(117,109)"/>
<path d="M0 0 C4.3701761 1.5142621 7.58359563 4.02003986 10 8 C9.01 8.33 8.02 8.66 7 9 C6.34 8.195625 5.68 7.39125 5 6.5625 C1.27013242 3.37657144 -1.19828439 2.87639148 -6 3 C-11.63449465 3.70431183 -14.88446124 7.17051332 -18.41796875 11.359375 C-21.09656981 15.83032392 -20.96964869 19.97832344 -20 25 C-19.505 25.99 -19.01 26.98 -18.5 28 C-16.22044823 32.55910354 -16.42421007 36.99446622 -17 42 C-18.3125 44.8125 -18.3125 44.8125 -20 47 C-20.391875 47.886875 -20.78375 48.77375 -21.1875 49.6875 C-24.61046975 55.9432723 -29.0808486 61.93472152 -35 66 C-35.66 65.67 -36.32 65.34 -37 65 C-36.48050781 64.443125 -35.96101563 63.88625 -35.42578125 63.3125 C-27.356389 54.48240719 -20.941518 45.33915943 -19.5625 33.125 C-19.77826805 29.98460625 -19.77826805 29.98460625 -21.50390625 27.67578125 C-24.09823985 23.03578513 -23.49960043 18.17191995 -23 13 C-21.25898698 7.46972335 -17.54734623 4.36394046 -13 1 C-9.04687837 -0.97656081 -4.30778842 -0.43374973 0 0 Z " fill="#4C6FA8" transform="translate(412,198)"/>
<path d="M0 0 C1.875 2.1875 1.875 2.1875 3 4 C2.67 4.66 2.34 5.32 2 6 C1.236875 5.360625 0.47375 4.72125 -0.3125 4.0625 C-5.38081996 0.1728591 -10.83936045 0.36451856 -17 1 C-21.45146251 3.18526342 -24.18885145 5.9394521 -27 10 C-28.05336511 13.16009533 -28.20032888 15.5553136 -28.25 18.875 C-28.27578125 19.90367187 -28.3015625 20.93234375 -28.328125 21.9921875 C-27.95620773 25.40142913 -26.86339132 27.16649258 -25 30 C-23.80291967 37.182482 -27.25489613 43.48037832 -30 50 C-31.08243634 46.61638419 -30.93802776 43.88919805 -30.5625 40.375 C-30.03716227 34.89262937 -29.89041685 29.50350946 -30 24 C-30.66 24 -31.32 24 -32 24 C-32.33 25.32 -32.66 26.64 -33 28 C-34.53606569 22.2781553 -35.2894726 17.52831147 -32.5078125 12.07421875 C-30.74821015 9.31799515 -28.91838186 6.64754058 -27 4 C-26.34 3.01 -25.68 2.02 -25 1 C-17.81866391 -4.33470681 -7.50152494 -4.77369769 0 0 Z " fill="#B5D3F3" transform="translate(418,198)"/>
<path d="M0 0 C-3.21614733 1.71990613 -6.47817444 2.91520792 -9.9375 4.0625 C-10.95714844 4.40410156 -11.97679687 4.74570313 -13.02734375 5.09765625 C-15.68080078 5.90310773 -18.28141644 6.4739727 -21 7 C-22.672233 7.65257873 -24.33927151 8.31867549 -26 9 C-26.680625 9.165 -27.36125 9.33 -28.0625 9.5 C-30.0460507 9.9327763 -30.0460507 9.9327763 -31.87109375 10.984375 C-33.99424411 11.99725407 -35.69032007 12.38255092 -38 12.75 C-43.19119198 13.82079043 -47.53300237 16.10311545 -52.203125 18.55078125 C-54.40940422 19.693979 -56.5727108 20.70306561 -58.875 21.625 C-62.11575891 22.92973231 -62.11575891 22.92973231 -65.125 25.1875 C-68.14681804 27.0925592 -69.5159983 27.40988255 -73 27 C-57.99156275 9.87846148 -21.5061626 -0.6517019 0 0 Z " fill="#5E8FD7" transform="translate(158,81)"/>
<path d="M0 0 C0.495 1.485 0.495 1.485 1 3 C0.01 3.33 -0.98 3.66 -2 4 C-2.36548445 5.32488113 -2.6937566 6.66018514 -3 8 C-4.4375 10.25 -4.4375 10.25 -6 12 C-6.66 12 -7.32 12 -8 12 C-7.773125 12.5775 -7.54625 13.155 -7.3125 13.75 C-7 16 -7 16 -8.29296875 17.890625 C-9.13794922 18.93476563 -9.13794922 18.93476563 -10 20 C-10.495 20.66 -10.99 21.32 -11.5 22 C-16 28 -16 28 -17.5 29.8125 C-19.09539904 32.1391236 -20.14410577 34.52646434 -21.20996094 37.13134766 C-22.78551263 40.85794614 -24.71128934 44.42237714 -26.5703125 48.01367188 C-28.07554427 50.96898684 -29.39838842 53.72365588 -30 57 C-31.98 57.495 -31.98 57.495 -34 58 C-34 61.3 -34 64.6 -34 68 C-34.99 68 -35.98 68 -37 68 C-37 68.99 -37 69.98 -37 71 C-37.66 71 -38.32 71 -39 71 C-39.33 71.99 -39.66 72.98 -40 74 C-36.14201102 51.91916948 -22.66646996 28.42970082 -9 11 C-8.01966797 9.71609375 -8.01966797 9.71609375 -7.01953125 8.40625 C-2.44430272 2.44430272 -2.44430272 2.44430272 0 0 Z " fill="#689AD3" transform="translate(245,114)"/>
<path d="M0 0 C0.84175781 -0.01417969 1.68351562 -0.02835937 2.55078125 -0.04296875 C4.6875 0.1875 4.6875 0.1875 6.6875 2.1875 C5.8370813 2.28454224 5.8370813 2.28454224 4.96948242 2.38354492 C-13.40618778 4.53744932 -30.76992466 7.52762835 -47.3125 16.1875 C-48.24191406 16.64898437 -49.17132813 17.11046875 -50.12890625 17.5859375 C-61.31409012 23.34559121 -70.73864428 31.02906321 -79.3125 40.1875 C-79.9725 39.8575 -80.6325 39.5275 -81.3125 39.1875 C-80.9825 38.1975 -80.6525 37.2075 -80.3125 36.1875 C-79.3225 36.1875 -78.3325 36.1875 -77.3125 36.1875 C-77.07402344 35.62546875 -76.83554688 35.0634375 -76.58984375 34.484375 C-75.03153908 31.68228586 -73.13493325 29.70856593 -70.875 27.4375 C-70.09253906 26.63828125 -69.31007813 25.8390625 -68.50390625 25.015625 C-66.3125 23.1875 -66.3125 23.1875 -63.3125 23.1875 C-62.9825 22.1975 -62.6525 21.2075 -62.3125 20.1875 C-60.16796875 18.90625 -60.16796875 18.90625 -57.5 17.6875 C-53.79649344 15.98117462 -53.79649344 15.98117462 -50.43212891 13.71264648 C-48.24663662 12.14010901 -46.40263438 11.34507578 -43.85546875 10.50390625 C-42.99711426 10.21789551 -42.13875977 9.93188477 -41.25439453 9.63720703 C-40.34544434 9.34442871 -39.43649414 9.05165039 -38.5 8.75 C-37.56526855 8.44433105 -36.63053711 8.13866211 -35.66748047 7.82373047 C-11.74078223 0.09129691 -11.74078223 0.09129691 0 0 Z " fill="#415E8C" transform="translate(164.3125,108.8125)"/>
<path d="M0 0 C0.6875 1.625 0.6875 1.625 1 4 C-0.3125 6.9375 -0.3125 6.9375 -2 10 C-2.69658363 11.65438613 -3.36096883 13.32254318 -4 15 C-4.37318359 15.89525391 -4.37318359 15.89525391 -4.75390625 16.80859375 C-6.1366834 20.23547625 -7.16270459 23.3786709 -7.5625 27.0625 C-7.99270434 30.93433902 -8.9234876 34.26386872 -10 38 C-10.51988278 40.64777507 -10.98739094 43.30047145 -11.4375 45.9609375 C-11.74990608 47.64879814 -12.08115789 49.33454179 -12.48583984 51.00268555 C-13.86816953 56.71091617 -14.40672903 62.20101505 -14.625 68.0625 C-14.66367187 68.92810547 -14.70234375 69.79371094 -14.7421875 70.68554688 C-14.83520481 72.79006359 -14.91862669 74.8950009 -15 77 C-15.33 77 -15.66 77 -16 77 C-16.4407179 50.15349983 -13.78509505 26.79459996 -3 2 C-2.01 2 -1.02 2 0 2 C0 1.34 0 0.68 0 0 Z " fill="#596F91" transform="translate(38,164)"/>
<path d="M0 0 C0 0.33 0 0.66 0 1 C-6.89250625 1.83121921 -13.62535206 2.10354921 -20.5625 1.9921875 C-22.58544001 1.97218982 -24.60839 1.95318291 -26.63134766 1.93505859 C-27.673172 1.92464539 -28.71499634 1.91423218 -29.78839111 1.90350342 C-60.34972568 0.86326421 -60.34972568 0.86326421 -90 7 C-92.99569255 8.01377075 -95.99450651 9.01562234 -99 10 C-99.65742187 10.22171875 -100.31484375 10.4434375 -100.9921875 10.671875 C-104.32953288 11.73180443 -106.68136445 12.32745422 -110 11 C-109.360625 10.87625 -108.72125 10.7525 -108.0625 10.625 C-107.381875 10.41875 -106.70125 10.2125 -106 10 C-105.67 9.34 -105.34 8.68 -105 8 C-102.6015625 7.1484375 -102.6015625 7.1484375 -99.625 6.375 C-98.64789063 6.11460938 -97.67078125 5.85421875 -96.6640625 5.5859375 C-94 5 -94 5 -91 5 C-90.67 4.01 -90.34 3.02 -90 2 C-88.329375 2.061875 -88.329375 2.061875 -86.625 2.125 C-83.45307785 2.13051639 -80.64898115 1.77720833 -77.5625 1.0625 C-52.7643991 -4.20336179 -25.12553894 -1.07684973 0 0 Z " fill="#4B7DD7" transform="translate(225,96)"/>
<path d="M0 0 C0.66 0 1.32 0 2 0 C2 15.51 2 31.02 2 47 C-0.45378929 43.31931607 -0.30646214 41.31946281 -0.4140625 36.92578125 C-0.43342865 36.2419487 -0.4527948 35.55811615 -0.4727478 34.8535614 C-0.53243997 32.67333375 -0.57888631 30.49305298 -0.625 28.3125 C-0.66318943 26.8326595 -0.70224174 25.352841 -0.7421875 23.87304688 C-0.83813202 20.2488995 -0.92220151 16.62458743 -1 13 C-1.38961914 13.80751709 -1.38961914 13.80751709 -1.78710938 14.63134766 C-2.13580078 15.34339355 -2.48449219 16.05543945 -2.84375 16.7890625 C-3.35711914 17.84407959 -3.35711914 17.84407959 -3.88085938 18.92041016 C-6.28240682 23.38297149 -9.17150781 27.11843454 -14 29 C-16.7265625 29.30078125 -16.7265625 29.30078125 -19.625 29.3125 C-20.58664063 29.32925781 -21.54828125 29.34601563 -22.5390625 29.36328125 C-23.35117188 29.24339844 -24.16328125 29.12351562 -25 29 C-25.66 28.01 -26.32 27.02 -27 26 C-26.20335937 26.05800781 -25.40671875 26.11601562 -24.5859375 26.17578125 C-17.78514703 26.49215598 -17.78514703 26.49215598 -11.5625 24.0625 C-6.20068927 17.6544823 -3.51359155 11.28945299 -1.578125 3.1875 C-1 1 -1 1 0 0 Z " fill="#5E779E" transform="translate(218,251)"/>
<path d="M0 0 C0.83724609 -0.00386719 1.67449219 -0.00773438 2.53710938 -0.01171875 C6.64050612 -0.00522089 10.43652818 0.11218667 14.4375 1.125 C15.14390625 1.27839844 15.8503125 1.43179688 16.578125 1.58984375 C18.05977756 1.92184368 19.54014757 2.25959441 21.01953125 2.6015625 C22.65340048 2.95525955 24.29814862 3.26152591 25.94921875 3.5234375 C28.22002889 3.91104761 30.2893211 4.2906215 32.4375 5.125 C34 7.75 34 7.75 34.4375 10.125 C31.54960097 9.70030897 29.48576023 9.15274963 26.9375 7.6875 C12.9072413 1.42399165 -7.21431519 2.40368718 -21.5625 7.125 C-22.97783558 7.52556667 -24.39431331 7.92214762 -25.8125 8.3125 C-26.72 8.580625 -27.6275 8.84875 -28.5625 9.125 C-27.07433279 6.14866558 -24.81864756 5.53613414 -21.875 4.0625 C-20.32232422 3.27166016 -20.32232422 3.27166016 -18.73828125 2.46484375 C-12.58883513 -0.12957202 -6.56415944 -0.03046014 0 0 Z " fill="#4570B8" transform="translate(332.5625,143.875)"/>
<path d="M0 0 C0 0.33 0 0.66 0 1 C-1.28910278 0.9685791 -1.28910278 0.9685791 -2.60424805 0.93652344 C-18.49674878 0.6012968 -33.65598728 0.48756448 -49.23828125 4.125 C-53 5 -53 5 -56 5 C-56.33 5.66 -56.66 6.32 -57 7 C-57.66 6.34 -58.32 5.68 -59 5 C-40.29628927 -3.81199034 -19.87961694 -5.99600655 0 0 Z " fill="#7098CC" transform="translate(358,136)"/>
<path d="M0 0 C1.875 0.25 1.875 0.25 4 1 C6.02755186 3.93995019 6 5.27704003 6 9 C6.99 8.67 7.98 8.34 9 8 C9.79953138 11.28696233 10.09658936 12.71023192 9 16 C9.66 16 10.32 16 11 16 C11.33 15.01 11.66 14.02 12 13 C11.46930939 16.82097239 10.50298434 19.06171403 8 22 C8.66 22 9.32 22 10 22 C8.49650623 25.66786393 6.36271208 27.68910393 3.375 30.25 C2.55773437 30.95640625 1.74046875 31.6628125 0.8984375 32.390625 C0.27195312 32.92171875 -0.35453125 33.4528125 -1 34 C-2.28282164 30.15153509 -1.48702089 28.71755223 0 25 C0.97691857 23.31970006 1.97388051 21.65071396 3 20 C4.62932575 15.11202276 5.0698293 9.64420693 3.10546875 4.7890625 C1.91844774 2.67195654 1.91844774 2.67195654 0 0 Z " fill="#C7DEF7" transform="translate(421,204)"/>
<path d="M0 0 C-0.763125 0.886875 -1.52625 1.77375 -2.3125 2.6875 C-3.90432203 4.591444 -5.21707089 6.36178482 -6.5 8.5 C-8 11 -8 11 -10.5625 14 C-12.80803083 16.76373025 -13.74866647 18.74653282 -15 22 C-17 24.8125 -17 24.8125 -19 27 C-19.66 27 -20.32 27 -21 27 C-21 27.66 -21 28.32 -21 29 C-21.66 29 -22.32 29 -23 29 C-21.56427591 24.03606031 -19.43077135 19.98909805 -16.75 15.625 C-16.34885986 14.96741699 -15.94771973 14.30983398 -15.53442383 13.63232422 C-7.46714404 0.54421787 -7.46714404 0.54421787 -3.95703125 -0.7578125 C-2 -1 -2 -1 0 0 Z " fill="#547CB7" transform="translate(59,137)"/>
<path d="M0 0 C1.32 0.33 2.64 0.66 4 1 C-1.32080925 5.81406551 -1.32080925 5.81406551 -4.75390625 6.75390625 C-16.48723299 11.25803529 -25.26672443 25.02571244 -30.3984375 35.94921875 C-32.31906732 40.47611104 -33.26426254 44.97614654 -33.68359375 49.875 C-33.78800781 50.57625 -33.89242188 51.2775 -34 52 C-34.99 52.495 -34.99 52.495 -36 53 C-35.10045356 44.67919546 -34.02983328 37.3857354 -30 30 C-29.57074219 29.19433594 -29.14148438 28.38867188 -28.69921875 27.55859375 C-26.91216743 24.27442569 -25.07504907 21.1125736 -23 18 C-22.01 18 -21.02 18 -20 18 C-19.77828125 17.44699219 -19.5565625 16.89398438 -19.328125 16.32421875 C-17.57185588 13.25074778 -15.3460684 11.21350861 -12.75 8.8125 C-11.81671875 7.93207031 -10.8834375 7.05164063 -9.921875 6.14453125 C-6.79732809 3.85124749 -4.81968276 3.28817133 -1 3 C-0.67 2.01 -0.34 1.02 0 0 Z " fill="#2F4669" transform="translate(300,155)"/>
<path d="M0 0 C4.3701761 1.5142621 7.58359563 4.02003986 10 8 C9.01 8.33 8.02 8.66 7 9 C6.34 8.195625 5.68 7.39125 5 6.5625 C1.27013242 3.37657144 -1.19828439 2.87639148 -6 3 C-12.62750252 3.82843782 -16.08052092 9.04768521 -20 14 C-20.66 14.99 -21.32 15.98 -22 17 C-23.1854683 14.19798403 -23.01522667 13.04377669 -22 10.125 C-16.41619443 1.4003038 -10.08659075 -1.01561534 0 0 Z " fill="#547FC0" transform="translate(412,198)"/>
<path d="M0 0 C2.38986074 2.28595376 3.87982781 3.73588105 4.203125 7.13671875 C4.30960601 12.93106039 3.77062059 16.88500814 1 22 C0.34 22.66 -0.32 23.32 -1 24 C-1.90888175 27.55457398 -2.67952715 31.10955294 -3.41210938 34.703125 C-4.30106729 38.79728973 -5.04435195 41.85067701 -8 45 C-8.20558249 39.75764641 -8.10595864 35.87002936 -6 31 C-6.061875 30.01 -6.12375 29.02 -6.1875 28 C-5.92842358 23.8547772 -4.00105551 22.7082696 -1 20 C-0.67 19.01 -0.34 18.02 0 17 C0.66 17 1.32 17 2 17 C1.85892253 15.54119891 1.71197585 14.08296449 1.5625 12.625 C1.48128906 11.81289062 1.40007812 11.00078125 1.31640625 10.1640625 C1.10909886 7.95727195 1.10909886 7.95727195 0 6 C-0.039992 4.00039988 -0.04346799 1.99952758 0 0 Z " fill="#517ABD" transform="translate(422,206)"/>
<path d="M0 0 C0.66 0 1.32 0 2 0 C-1.54479061 7.92364961 -8.14465175 15.61234736 -14 22 C-14.66 22 -15.32 22 -16 22 C-15.34 20.35 -14.68 18.7 -14 17 C-14.99 17 -15.98 17 -17 17 C-17 17.66 -17 18.32 -17 19 C-21.42778844 21.74522883 -24.71862571 23.48474397 -30 24 C-29.67 23.34 -29.34 22.68 -29 22 C-25.9375 21.375 -25.9375 21.375 -23 21 C-23 20.34 -23 19.68 -23 19 C-21.39801383 17.89208433 -19.74017158 16.86457308 -18.0625 15.875 C-11.84816622 12.0341408 -5.71219593 7.7357891 -1.375 1.76171875 C-0.92125 1.18035156 -0.4675 0.59898437 0 0 Z " fill="#3E464F" transform="translate(319,314)"/>
<path d="M0 0 C0.495 1.485 0.495 1.485 1 3 C-1.80850814 5.96772062 -4.61776854 8.69269924 -8 11 C-11.5 10.6875 -11.5 10.6875 -15 9 C-16.45192053 8.50173945 -17.91083354 8.02353511 -19.375 7.5625 C-21.69923204 6.78380321 -24.01742709 5.99383034 -26.328125 5.17578125 C-30.91123329 3.57792887 -35.17006236 2.51382315 -40 2 C-40 1.67 -40 1.34 -40 1 C-21.45034712 1.40413187 -21.45034712 1.40413187 -13.9453125 5.0625 C-11.97741041 6.01088655 -10.13004645 6.54151466 -8 7 C-7.566875 6.34 -7.13375 5.68 -6.6875 5 C-6.130625 4.34 -5.57375 3.68 -5 3 C-4.01 3 -3.02 3 -2 3 C-2 2.34 -2 1.68 -2 1 C-1.34 0.67 -0.68 0.34 0 0 Z " fill="#5989D0" transform="translate(383,135)"/>
<path d="M0 0 C0.84175781 -0.01417969 1.68351562 -0.02835937 2.55078125 -0.04296875 C4.6875 0.1875 4.6875 0.1875 6.6875 2.1875 C6.1205542 2.25219482 5.5536084 2.31688965 4.96948242 2.38354492 C-10.59317307 4.20772177 -25.47433609 7.09275068 -40.3125 12.1875 C-40.6425 11.5275 -40.9725 10.8675 -41.3125 10.1875 C-34.93924858 7.25482133 -28.3908621 5.2826888 -21.625 3.5 C-20.81764404 3.28577393 -20.01028809 3.07154785 -19.1784668 2.85083008 C-12.82703366 1.21454856 -6.58344145 0.05119317 0 0 Z " fill="#43649D" transform="translate(164.3125,108.8125)"/>
<path d="M0 0 C3.3 0 6.6 0 10 0 C10 0.66 10 1.32 10 2 C1.71776539 6.76379626 -6.5878459 11.46773738 -15 16 C-15.33 15.01 -15.66 14.02 -16 13 C-6 7 -6 7 -3.23046875 5.55078125 C-0.54559821 4.04696635 -0.54559821 4.04696635 0 0 Z " fill="#4A71B2" transform="translate(221,97)"/>
<path d="M0 0 C2.33333333 0.33333333 4.66666667 0.66666667 7 1 C8.670625 1.185625 8.670625 1.185625 10.375 1.375 C13.98203248 1.99690215 17.13978044 3.02502622 20.578125 4.234375 C24.64164345 5.51897115 28.80894982 6.25628546 33 7 C33 7.33 33 7.66 33 8 C22.61993429 8.48741178 13.13814418 7.03977033 3 5 C3 4.34 3 3.68 3 3 C2.01 2.67 1.02 2.34 0 2 C0 1.34 0 0.68 0 0 Z " fill="#43484E" transform="translate(137,369)"/>
<path d="M0 0 C3.70890158 -0.02515686 7.41623442 -0.00100871 11.125 0.04296875 C11.125 0.70296875 11.125 1.36296875 11.125 2.04296875 C10.44622803 2.07213379 9.76745605 2.10129883 9.06811523 2.13134766 C-7.36045593 2.91836173 -22.44533878 3.7392869 -35.45703125 14.94140625 C-36.875 16.04296875 -36.875 16.04296875 -38.875 16.04296875 C-38.875 15.05296875 -38.875 14.06296875 -38.875 13.04296875 C-28.63059761 4.25149843 -13.13882466 0.14569261 0 0 Z " fill="#3B4D67" transform="translate(334.875,156.95703125)"/>
<path d="M0 0 C0.99 0.33 1.98 0.66 3 1 C2.41747775 5.54367354 1.18686354 9.60330353 -0.3203125 13.90234375 C-1.08425328 16.05661168 -1.08425328 16.05661168 -1.375 18.625 C-2.34538246 22.31245333 -4.67735722 25.02598876 -7 28 C-8.41615643 23.51820091 -7.11035775 20.03538375 -5.75 15.6875 C-5.53214844 14.95337891 -5.31429687 14.21925781 -5.08984375 13.46289062 C-3.68141616 8.82166872 -1.98696514 4.42391945 0 0 Z " fill="#5083D0" transform="translate(204,188)"/>
<path d="M0 0 C0.66 0.33 1.32 0.66 2 1 C-5.43089574 9.2500496 -13.0870592 17.21134622 -21 25 C-21.99 24.67 -22.98 24.34 -24 24 C-6.6 5 -6.6 5 0 0 Z " fill="#DBEBF4" transform="translate(299,86)"/>
<path d="M0 0 C0.6875 1.625 0.6875 1.625 1 4 C-0.3125 6.9375 -0.3125 6.9375 -2 10 C-3.25030195 12.96946714 -4.37012721 15.98323965 -5.5 19 C-5.7578125 19.68191406 -6.015625 20.36382812 -6.28125 21.06640625 C-6.88117021 22.68032204 -7.44512309 24.30754907 -8 25.9375 C-8.495 26.9584375 -8.495 26.9584375 -9 28 C-9.99 28.33 -10.98 28.66 -12 29 C-9.98984465 19.53111035 -6.74911767 10.88140496 -3 2 C-2.01 2 -1.02 2 0 2 C0 1.34 0 0.68 0 0 Z " fill="#5173A7" transform="translate(38,164)"/>
<path d="M0 0 C0.99 0.33 1.98 0.66 3 1 C2.17757813 1.73863281 1.35515625 2.47726563 0.5078125 3.23828125 C-6.00105622 9.13541419 -12.1549782 15.13710989 -17.9765625 21.72265625 C-19.60006688 23.54988222 -21.24774746 25.29797126 -23 27 C-23.296875 24.8125 -23.296875 24.8125 -23 22 C-20.953125 19.5 -20.953125 19.5 -18.25 17 C-15.63836583 14.55636569 -13.18389637 12.23136484 -10.95703125 9.4296875 C-8.96263155 6.95360644 -6.93006822 5.09037528 -4.4375 3.125 C-3.67308594 2.50882812 -2.90867187 1.89265625 -2.12109375 1.2578125 C-1.42113281 0.84273438 -0.72117187 0.42765625 0 0 Z " fill="#5479B2" transform="translate(296,86)"/>
<path d="M0 0 C0.99 0.33 1.98 0.66 3 1 C2.25234375 1.78503906 1.5046875 2.57007813 0.734375 3.37890625 C-0.26077223 4.43977075 -1.25554386 5.50098765 -2.25 6.5625 C-2.74113281 7.07619141 -3.23226562 7.58988281 -3.73828125 8.11914062 C-7.1964312 11.83088824 -9.559916 15.55593211 -12 20 C-13.6328125 22.21484375 -13.6328125 22.21484375 -15.125 23.9375 C-15.62257813 24.52402344 -16.12015625 25.11054688 -16.6328125 25.71484375 C-18 27 -18 27 -20 27 C-20.33 27.66 -20.66 28.32 -21 29 C-20.35740457 26.10507514 -19.46450574 23.55111562 -18.1875 20.875 C-17.87167969 20.19179687 -17.55585937 19.50859375 -17.23046875 18.8046875 C-16 17 -16 17 -14.18359375 16.1640625 C-10.87497497 14.400255 -9.04391704 11.46697554 -6.875 8.5 C-2.15148305 2.15148305 -2.15148305 2.15148305 0 0 Z " fill="#355593" transform="translate(74,137)"/>
<path d="M0 0 C0.66 0 1.32 0 2 0 C0.93157309 3.69092932 -0.47055302 6.98775688 -2.25 10.375 C-5.49062744 16.70285239 -7.85074294 23.32890522 -10.27050781 30.00097656 C-11.49004591 33.34287011 -12.74683689 36.67059031 -14 40 C-14.33 40 -14.66 40 -15 40 C-15.21278058 35.53160785 -14.59138085 32.17737474 -13 28 C-12.34 28 -11.68 28 -11 28 C-10.9175 27.030625 -10.835 26.06125 -10.75 25.0625 C-10.08505758 20.31153459 -8.03286653 16.29874938 -6 12 C-5.32165413 10.33805262 -4.64800425 8.67401097 -4 7 C-3.34 7 -2.68 7 -2 7 C-1.855625 6.21625 -1.71125 5.4325 -1.5625 4.625 C-1 2 -1 2 0 0 Z " fill="#E0F7FC" transform="translate(219,148)"/>
<path d="M0 0 C4.32147193 5.15766013 7.22356542 10.74047648 10.3125 16.6875 C10.87517578 17.74517578 11.43785156 18.80285156 12.01757812 19.89257812 C12.54416016 20.90126953 13.07074219 21.90996094 13.61328125 22.94921875 C14.09579346 23.87049561 14.57830566 24.79177246 15.07543945 25.7409668 C15.38054443 26.48644775 15.68564941 27.23192871 16 28 C15.67 28.66 15.34 29.32 15 30 C14.34 29.67 13.68 29.34 13 29 C13 28.34 13 27.68 13 27 C12.34 27 11.68 27 11 27 C10.67 25.35 10.34 23.7 10 22 C9.34 22 8.68 22 8 22 C7.59007812 20.85660156 7.18015625 19.71320313 6.7578125 18.53515625 C6.21391748 17.04413369 5.66962611 15.55325567 5.125 14.0625 C4.85558594 13.30775391 4.58617187 12.55300781 4.30859375 11.77539062 C3.08380586 7.64902908 3.08380586 7.64902908 0 5 C0 3.35 0 1.7 0 0 Z " fill="#6688B7" transform="translate(171,218)"/>
<path d="M0 0 C0.33 0 0.66 0 1 0 C1.50534727 2.72827365 2.00443845 5.45744694 2.5 8.1875 C2.64308594 8.95642578 2.78617188 9.72535156 2.93359375 10.51757812 C3.06894531 11.26845703 3.20429688 12.01933594 3.34375 12.79296875 C3.46943359 13.4789917 3.59511719 14.16501465 3.72460938 14.87182617 C4 17 4 17 4 22 C-6.89 22.495 -6.89 22.495 -18 23 C-15.15801616 20.15801616 -12.95946334 20.62817088 -9 20.4375 C-4.33554482 20.37027255 -4.33554482 20.37027255 0 19 C0 12.73 0 6.46 0 0 Z " fill="#D2EFF9" transform="translate(166,59)"/>
<path d="M0 0 C-4.02234468 4.02234468 -8.84401447 5.84047641 -14.484375 6.2578125 C-17.66562901 6.25086653 -20.82393641 6.17672069 -24 6 C-21 4 -21 4 -18 4 C-18 3.34 -18 2.68 -18 2 C-11.84629161 0.176679 -6.40353322 -0.2361959 0 0 Z " fill="#6189C1" transform="translate(330,69)"/>
<path d="M0 0 C2.0622048 -0.054348 4.12482816 -0.09294961 6.1875 -0.125 C7.33605469 -0.14820313 8.48460937 -0.17140625 9.66796875 -0.1953125 C13.02688903 0.00157614 14.9222871 0.74461711 18 2 C21.16852737 2.64746409 24.36214658 3.1018246 27.5625 3.5625 C29.25153878 3.81220626 30.94035055 4.06345398 32.62890625 4.31640625 C33.37213135 4.42412354 34.11535645 4.53184082 34.88110352 4.64282227 C36.95672396 4.99270505 38.96599858 5.46137641 41 6 C40.67 6.66 40.34 7.32 40 8 C20.2 4.535 20.2 4.535 0 1 C0 0.67 0 0.34 0 0 Z " fill="#3C4F6E" transform="translate(345,176)"/>
<path d="M0 0 C4.08041979 3.51343663 6.15958825 7.6583233 8.5625 12.375 C8.94857422 13.1175 9.33464844 13.86 9.73242188 14.625 C10.83174363 16.74498676 11.91799437 18.87113391 13 21 C13.56203125 22.09828125 14.1240625 23.1965625 14.703125 24.328125 C16.07727504 27.1592052 17.07034298 29.9964927 18 33 C14.51459222 29.89139306 12.58140995 27.26689333 10.82788086 22.96411133 C9.37436021 19.5156968 7.63549747 16.20798947 5.9375 12.875 C3.77993846 8.63905349 1.67372105 4.45747472 0 0 Z " fill="#456CAC" transform="translate(152,213)"/>
<path d="M0 0 C5.47530633 0.91255106 8.70493857 2.30553195 12.25 6.625 C15.93884504 10.99400085 19.91133634 15.00691549 24 19 C24.99 18.67 25.98 18.34 27 18 C27 18.99 27 19.98 27 21 C21.92169202 20.64849599 19.57235436 17.93504777 16.3125 14.375 C11.81775699 9.64905461 7.26995492 5.76407464 1.765625 2.20703125 C1.18296875 1.80871094 0.6003125 1.41039062 0 1 C0 0.67 0 0.34 0 0 Z " fill="#4D7CCD" transform="translate(367,154)"/>
<path d="M0 0 C1.49502235 4.48506705 -0.17638958 7.76714816 -2 12 C-4.0625 15.0625 -4.0625 15.0625 -6 17 C-6.66 17 -7.32 17 -8 17 C-8 17.66 -8 18.32 -8 19 C-8.66 19 -9.32 19 -10 19 C-8.62394084 14.23448987 -6.53221934 10.2751447 -3.875 6.125 C-3.50246094 5.53203125 -3.12992188 4.9390625 -2.74609375 4.328125 C-1.83635 2.8818657 -0.91896202 1.44041954 0 0 Z " fill="#6384B1" transform="translate(46,147)"/>
<path d="M0 0 C5.71716236 0.78470856 11.20891314 1.69562134 16.75 3.3125 C17.52859375 3.53550781 18.3071875 3.75851563 19.109375 3.98828125 C21 5 21 5 21.765625 7.10546875 C21.84296875 7.73066406 21.9203125 8.35585937 22 9 C19.12284192 8.57688852 16.96558352 7.98197232 14.375 6.625 C9.75536615 4.40073185 4.95943112 3.24427008 0 2 C0 1.34 0 0.68 0 0 Z " fill="#4E7ED4" transform="translate(345,145)"/>
<path d="M0 0 C0.99 0.33 1.98 0.66 3 1 C-6.09375 15.0625 -6.09375 15.0625 -12 19 C-12.66 18.67 -13.32 18.34 -14 18 C-13.49210937 17.45472656 -12.98421875 16.90945313 -12.4609375 16.34765625 C-7.7538229 11.19098576 -3.69607775 5.92212458 0 0 Z " fill="#4C6996" transform="translate(389,245)"/>
<path d="M0 0 C-0.90621094 0.49628906 -1.81242187 0.99257812 -2.74609375 1.50390625 C-9.95947763 5.508038 -16.6771367 9.64731149 -23 15 C-23.33 14.01 -23.66 13.02 -24 12 C-23.34 12 -22.68 12 -22 12 C-22 11.34 -22 10.68 -22 10 C-20.68 9.67 -19.36 9.34 -18 9 C-18 8.34 -18 7.68 -18 7 C-16.35 6.67 -14.7 6.34 -13 6 C-13 5.34 -13 4.68 -13 4 C-12.01 4 -11.02 4 -10 4 C-9.67 3.01 -9.34 2.02 -9 1 C-5.53568007 -0.87260537 -3.70820267 -1.10692617 0 0 Z " fill="#DFF4FA" transform="translate(288,81)"/>
<path d="M0 0 C-8.56079191 4.48325832 -16.39400634 6.95520225 -26 5 C-26 4.67 -26 4.34 -26 4 C-23.8131784 3.51774669 -21.62550745 3.03934417 -19.4375 2.5625 C-18.21933594 2.29566406 -17.00117188 2.02882813 -15.74609375 1.75390625 C-10.48358974 0.69482046 -5.37757028 -0.16295668 0 0 Z " fill="#70A0D6" transform="translate(158,81)"/>
<path d="M0 0 C0.33 0 0.66 0 1 0 C1.09765625 6.15234375 1.09765625 6.15234375 1 8 C0.67 8.33 0.34 8.66 0 9 C-0.56274765 11.68544346 -1.08061023 14.36253387 -1.5625 17.0625 C-1.70107422 17.82111328 -1.83964844 18.57972656 -1.98242188 19.36132812 C-2.32511827 21.24024975 -2.6630073 23.12004701 -3 25 C-3.33 25 -3.66 25 -4 25 C-4 23.35 -4 21.7 -4 20 C-4.66 20 -5.32 20 -6 20 C-5.71640113 18.5608866 -5.42278601 17.12374482 -5.125 15.6875 C-4.96257812 14.88699219 -4.80015625 14.08648437 -4.6328125 13.26171875 C-4 11 -4 11 -2 8 C-1.33841957 5.95415921 -1.33841957 5.95415921 -0.875 3.8125 C-0.58625 2.554375 -0.2975 1.29625 0 0 Z " fill="#819EC2" transform="translate(224,231)"/>
<path d="M0 0 C1.85546875 0.21484375 1.85546875 0.21484375 4 1 C6.88929508 5.45107621 8.42157057 10.33756412 7.75 15.625 C7.5025 16.73875 7.255 17.8525 7 19 C6.34 19 5.68 19 5 19 C4.34 20.98 3.68 22.96 3 25 C2.01 25 1.02 25 0 25 C0.474375 24.236875 0.94875 23.47375 1.4375 22.6875 C4.40623136 17.58128206 4.67279899 12.78432378 4 7 C2.92356735 4.33947213 1.65319362 2.37646584 0 0 Z " fill="#AACEF5" transform="translate(421,204)"/>
<path d="M0 0 C0.33 0 0.66 0 1 0 C1.58432525 7.45014687 -0.21832654 14.08642473 -3 21 C-3.66 21.33 -4.32 21.66 -5 22 C-5.20688318 16.80789949 -4.55151644 12.59545346 -3.0625 7.625 C-2.70285156 6.40039062 -2.34320313 5.17578125 -1.97265625 3.9140625 C-1 1 -1 1 0 0 Z " fill="#4D72AB" transform="translate(231,195)"/>
<path d="M0 0 C1.94218842 4.85547105 -0.43704872 9.31114616 -2 14 C-2.66 14 -3.32 14 -4 14 C-4.33 15.98 -4.66 17.96 -5 20 C-6.45708597 16.08162017 -5.60354951 12.88333547 -4.75 8.875 C-4.49734375 7.63492188 -4.2446875 6.39484375 -3.984375 5.1171875 C-3 2 -3 2 0 0 Z " fill="#5D7798" transform="translate(29,191)"/>
<path d="M0 0 C0 0.66 0 1.32 0 2 C-0.95261719 2.32613281 -1.90523438 2.65226562 -2.88671875 2.98828125 C-4.15374769 3.42939503 -5.42066913 3.87081771 -6.6875 4.3125 C-7.92886719 4.74175781 -9.17023438 5.17101562 -10.44921875 5.61328125 C-13.96349019 6.85260679 -13.96349019 6.85260679 -16.70703125 8.73046875 C-19 10 -19 10 -21.3125 9.6875 C-21.869375 9.460625 -22.42625 9.23375 -23 9 C-21.3970947 8.18501438 -19.79262722 7.37310073 -18.1875 6.5625 C-17.29417969 6.11003906 -16.40085937 5.65757813 -15.48046875 5.19140625 C-13 4 -13 4 -10 3 C-10.66 2.34 -11.32 1.68 -12 1 C-7.93631321 0.22596442 -4.13574827 -0.0984702 0 0 Z " fill="#BDD1DE" transform="translate(338,67)"/>
<path d="M0 0 C-1.38347641 3.08044993 -3.01600525 5.28546905 -5.3125 7.75 C-8.73842904 11.56295868 -11.44232102 15.5682613 -14 20 C-15 17 -15 17 -13.5234375 14.00390625 C-12.81810582 12.85009009 -12.10144275 11.70314256 -11.375 10.5625 C-11.03082031 9.98951172 -10.68664062 9.41652344 -10.33203125 8.82617188 C-4.82710012 0 -4.82710012 0 0 0 Z " fill="#3F4A5A" transform="translate(295,174)"/>
<path d="M0 0 C0.625 1.75 0.625 1.75 1 4 C0.36110439 5.34686102 -0.3106098 6.67827258 -1 8 C-1.43798538 10.23859193 -1.80873928 12.49099487 -2.125 14.75 C-2.29257812 15.92046875 -2.46015625 17.0909375 -2.6328125 18.296875 C-2.75398438 19.18890625 -2.87515625 20.0809375 -3 21 C-5.43768752 16.65328009 -5.82349536 12.90099665 -5 8 C-3.62234877 5.09589201 -1.94707757 2.55206239 0 0 Z " fill="#BFDAF8" transform="translate(389,205)"/>
<path d="M0 0 C-3.53867432 2.03983733 -7.08198291 2.79624881 -11.0625 3.625 C-12.90521484 4.01558594 -12.90521484 4.01558594 -14.78515625 4.4140625 C-18 5 -18 5 -21 5 C-21.33 5.66 -21.66 6.32 -22 7 C-22.66 6.34 -23.32 5.68 -24 5 C-15.7698902 0.91412989 -9.18746945 -0.73304278 0 0 Z " fill="#6388BB" transform="translate(323,136)"/>
<path d="M0 0 C0.99 0.33 1.98 0.66 3 1 C2.55269531 1.556875 2.10539063 2.11375 1.64453125 2.6875 C-2.25613242 7.61115223 -5.80272672 12.59262999 -9 18 C-9.83583327 15.62392051 -10.1842383 14.45550373 -9.22265625 12.078125 C-7.61132812 9.5390625 -7.61132812 9.5390625 -6 7 C-5.34 7 -4.68 7 -4 7 C-3.8453125 6.1028125 -3.8453125 6.1028125 -3.6875 5.1875 C-2.91123545 2.71756736 -1.92911079 1.67748765 0 0 Z " fill="#DEF6FB" transform="translate(235,123)"/>
<path d="M0 0 C0.66 0.33 1.32 0.66 2 1 C-2.46351289 6.22325977 -7.0744893 11.20922972 -12 16 C-12.99 15.67 -13.98 15.34 -15 15 C-10.05 10.05 -5.1 5.1 0 0 Z " fill="#D8E4EC" transform="translate(96,137)"/>
<path d="M0 0 C3.46941546 0.45822468 6.67395049 0.89131683 10 2 C10 2.66 10 3.32 10 4 C10.66 4 11.32 4 12 4 C12.144375 4.763125 12.28875 5.52625 12.4375 6.3125 C12.9632594 9.08172908 12.9632594 9.08172908 14 12 C12.68 13.32 11.36 14.64 10 16 C10.103125 14.783125 10.20625 13.56625 10.3125 12.3125 C10.3125 8.76016587 10.09375906 8.1232262 7.8125 5.125 C5.21745604 3.16430012 3.08592345 1.96986166 0 1 C0 0.67 0 0.34 0 0 Z " fill="#5386C4" transform="translate(405,206)"/>
<path d="M0 0 C0.66 0 1.32 0 2 0 C1.66569599 7.56218722 1.12892533 14.06194818 -2 21 C-2.33 21 -2.66 21 -3 21 C-3.20558249 15.75764641 -3.10595864 11.87002936 -1 7 C-0.96154557 5.00036972 -0.95455719 2.99948367 -1 1 C-0.67 0.67 -0.34 0.34 0 0 Z " fill="#43649B" transform="translate(417,230)"/>
<path d="M0 0 C0.92900148 3.43358947 1.23296968 6.42779828 1 10 C0.34 10.66 -0.32 11.32 -1 12 C-1.309375 12.825 -1.61875 13.65 -1.9375 14.5 C-3 17 -3 17 -6 19 C-4.3186083 12.51292846 -2.46937673 6.2322365 0 0 Z " fill="#6A8AB0" transform="translate(108,179)"/>
<path d="M0 0 C0.66 0.99 1.32 1.98 2 3 C1.01 3.33 0.02 3.66 -1 4 C-1.70710678 5.64991582 -2.36562656 7.3207762 -3 9 C-4.9375 12.3125 -4.9375 12.3125 -7 15 C-7.99 15 -8.98 15 -10 15 C-8.59601721 10.89889238 -6.62912962 8.01910841 -3.875 4.6875 C-3.15054687 3.80449219 -2.42609375 2.92148438 -1.6796875 2.01171875 C-1.12539063 1.34785156 -0.57109375 0.68398437 0 0 Z " fill="#576E8C" transform="translate(273,160)"/>
<path d="M0 0 C0.66 0.33 1.32 0.66 2 1 C-0.67014319 6.00651847 -2.84003027 7.80325573 -8.1953125 9.65234375 C-10 10 -10 10 -12 9 C-8.04 6.03 -4.08 3.06 0 0 Z " fill="#628DCC" transform="translate(277,86)"/>
<path d="M0 0 C1.77036501 5.31109502 0.37729189 10.71437195 -1 16 C-3.125 19.25 -3.125 19.25 -5 21 C-4.42351925 13.64987044 -2.28953836 6.98575424 0 0 Z " fill="#7DA5CF" transform="translate(201,195)"/>
<path d="M0 0 C0.99 0.33 1.98 0.66 3 1 C2.29066469 4.68854359 0.93065633 7.78223945 -1 11 C-3.1875 11.875 -3.1875 11.875 -5 12 C-3.68938409 7.76570244 -2.05643741 3.92592596 0 0 Z " fill="#6299D8" transform="translate(218,154)"/>
<path d="M0 0 C0.33 0.99 0.66 1.98 1 3 C0.01 4.485 0.01 4.485 -1 6 C-1.81931089 8.51176074 -1.81931089 8.51176074 -2 11 C-1.34 11.66 -0.68 12.32 0 13 C-1.375 14.5 -1.375 14.5 -3 16 C-3.66 16 -4.32 16 -5 16 C-4.58997722 4.29384966 -4.58997722 4.29384966 0 0 Z " fill="#537DBB" transform="translate(113,172)"/>
<path d="M0 0 C0.66 0.33 1.32 0.66 2 1 C-0.94209022 4.67761277 -3.59081436 5.72431991 -8 6.80078125 C-10.23734399 7.02364169 -11.86521444 6.66235534 -14 6 C-11.71220962 4.96959833 -9.42048864 3.95047982 -7.125 2.9375 C-6.47402344 2.64294922 -5.82304688 2.34839844 -5.15234375 2.04492188 C-3.45989459 1.30338487 -1.73131425 0.64560999 0 0 Z " fill="#6F9CD3" transform="translate(119,89)"/>
<path d="M0 0 C0.33 0 0.66 0 1 0 C1.25 2.75 1.25 2.75 1 6 C-0.9375 8.1875 -0.9375 8.1875 -3 10 C-3.33 10.99 -3.66 11.98 -4 13 C-8.34285714 17 -8.34285714 17 -12 17 C-12 16.34 -12 15.68 -12 15 C-11.113125 14.484375 -10.22625 13.96875 -9.3125 13.4375 C-4.96272753 10.72662284 -3.17554739 6.48977508 -1 2 C-0.67 1.34 -0.34 0.68 0 0 Z " fill="#2F4770" transform="translate(216,264)"/>
<path d="M0 0 C1.7492214 -0.08142927 3.49954542 -0.13938541 5.25 -0.1875 C6.22453125 -0.22230469 7.1990625 -0.25710937 8.203125 -0.29296875 C11.42543008 0.04456321 12.57242512 0.94071105 15 3 C15.99 3.33 16.98 3.66 18 4 C18 4.66 18 5.32 18 6 C11.98922864 4.36959185 5.98336072 2.72852643 0 1 C0 0.67 0 0.34 0 0 Z " fill="#DEF3FA" transform="translate(351,134)"/>
<path d="M0 0 C-1.34684007 4.04052022 -3.44847477 4.77159201 -7 7 C-8.34175973 7.98866506 -9.67896002 8.9838154 -11 10 C-11 7.36 -11 4.72 -11 2 C-9.515 2.99 -9.515 2.99 -8 4 C-7.05125 3.34 -6.1025 2.68 -5.125 2 C-2 0 -2 0 0 0 Z " fill="#3C4251" transform="translate(262,221)"/>
<path d="M0 0 C1.40765625 0.00580078 1.40765625 0.00580078 2.84375 0.01171875 C5.52087334 0.3148636 7.19965635 0.95073996 9.5 2.3125 C8.84 2.9725 8.18 3.6325 7.5 4.3125 C6.51 3.9825 5.52 3.6525 4.5 3.3125 C2.10509014 3.24279948 -0.29167691 3.22801997 -2.6875 3.25 C-3.95980469 3.25902344 -5.23210937 3.26804688 -6.54296875 3.27734375 C-7.51878906 3.28894531 -8.49460937 3.30054688 -9.5 3.3125 C-6.3058585 0.45735937 -4.25421286 -0.07596809 0 0 Z " fill="#769ECA" transform="translate(129.5,163.6875)"/>
<path d="M0 0 C4.50802601 1.25805377 7.4912812 2.90407165 11 6 C8.36 5.67 5.72 5.34 3 5 C3 6.32 3 7.64 3 9 C2.34 9 1.68 9 1 9 C0.67 6.03 0.34 3.06 0 0 Z " fill="#6D9BC9" transform="translate(166,57)"/>
<path d="M0 0 C0.33 0.99 0.66 1.98 1 3 C-2.12978953 9.19154016 -6.39167482 14.83308995 -11 20 C-11 16.45826225 -10.35548192 15.86187185 -8.1875 13.1875 C-5.64854093 9.93763239 -3.74516299 6.75210042 -2 3 C-1.34 2.01 -0.68 1.02 0 0 Z " fill="#3D5D94" transform="translate(401,248)"/>
<path d="M0 0 C5.75 0.75 5.75 0.75 8 3 C7.34 3 6.68 3 6 3 C6.99 4.32 7.98 5.64 9 7 C7.68 7 6.36 7 5 7 C5 6.34 5 5.68 5 5 C2.03 4.505 2.03 4.505 -1 4 C-0.67 2.68 -0.34 1.36 0 0 Z " fill="#363D46" transform="translate(131,366)"/>
<path d="M0 0 C0.33 0 0.66 0 1 0 C2.90420731 6.80074041 4.40850553 12.91923749 4 20 C2.35 20 0.7 20 -1 20 C0.32 19.67 1.64 19.34 3 19 C2.81038696 18.18994507 2.81038696 18.18994507 2.61694336 17.36352539 C2.05112213 14.93120171 1.49420272 12.49692609 0.9375 10.0625 C0.73833984 9.21236328 0.53917969 8.36222656 0.33398438 7.48632812 C0.15029297 6.67744141 -0.03339844 5.86855469 -0.22265625 5.03515625 C-0.39547119 4.2862915 -0.56828613 3.53742676 -0.74633789 2.76586914 C-0.87190063 1.89176392 -0.87190063 1.89176392 -1 1 C-0.67 0.67 -0.34 0.34 0 0 Z " fill="#D0E6F0" transform="translate(396,167)"/>
<path d="M0 0 C5.75 -0.125 5.75 -0.125 8 1 C7.67 4.3 7.34 7.6 7 11 C6.01 11.33 5.02 11.66 4 12 C4.33 8.37 4.66 4.74 5 1 C3.35 1 1.7 1 0 1 C0 0.67 0 0.34 0 0 Z " fill="#4D6FA9" transform="translate(165,111)"/>
<path d="M0 0 C0 0.66 0 1.32 0 2 C-3.34880626 4.74219867 -6.67076296 6.86153781 -11 7.3125 C-11.66 7.209375 -12.32 7.10625 -13 7 C-9.2676914 2.85299045 -5.66915687 0 0 0 Z " fill="#5F8BC9" transform="translate(98,101)"/>
<path d="M0 0 C1.134375 0.268125 2.26875 0.53625 3.4375 0.8125 C5.22826684 1.17118872 7.01999157 1.52511858 8.8125 1.875 C10.35435785 2.18655535 11.89609034 2.49873479 13.4375 2.8125 C13.4375 3.1425 13.4375 3.4725 13.4375 3.8125 C11.39590905 3.8397616 9.35421037 3.85901345 7.3125 3.875 C6.17554688 3.88660156 5.03859375 3.89820313 3.8671875 3.91015625 C0.6245844 3.817827 -2.38182612 3.42639906 -5.5625 2.8125 C-3.7762231 0.33155986 -3.11832693 -0.22817026 0 0 Z " fill="#7F8083" transform="translate(156.5625,373.1875)"/>
<path d="M0 0 C0.93423645 3.01031744 1.04449911 3.86650268 0 7 C-0.0806622 8.48123547 -0.10761193 9.96582204 -0.09765625 11.44921875 C-0.09443359 12.29677734 -0.09121094 13.14433594 -0.08789062 14.01757812 C-0.07951172 14.89865234 -0.07113281 15.77972656 -0.0625 16.6875 C-0.05798828 17.58017578 -0.05347656 18.47285156 -0.04882812 19.39257812 C-0.03704983 21.59511987 -0.02060164 23.79752599 0 26 C-1.32 25.67 -2.64 25.34 -4 25 C-3.34 24.67 -2.68 24.34 -2 24 C-2.02320313 22.77023438 -2.04640625 21.54046875 -2.0703125 20.2734375 C-2.08908039 18.6406311 -2.10727949 17.0078181 -2.125 15.375 C-2.14175781 14.56675781 -2.15851563 13.75851563 -2.17578125 12.92578125 C-2.21420986 8.19906185 -1.82737094 4.44612298 0 0 Z " fill="#ABAFB3" transform="translate(278,202)"/>
<path d="M0 0 C0.33 0.66 0.66 1.32 1 2 C-1.20930233 8.51162791 -1.20930233 8.51162791 -4.125 10.3125 C-5.053125 10.6528125 -5.053125 10.6528125 -6 11 C-6.33 11.66 -6.66 12.32 -7 13 C-6.35632481 10.04705712 -5.40722839 7.51718012 -4.0625 4.8125 C-3.72347656 4.11769531 -3.38445313 3.42289063 -3.03515625 2.70703125 C-2 1 -2 1 0 0 Z " fill="#4167AF" transform="translate(60,153)"/>
<path d="M0 0 C3.45197673 -0.39451163 4.7017938 -0.21819966 7.5625 1.875 C8.366875 2.57625 9.17125 3.2775 10 4 C11.31138904 4.70885894 12.63777017 5.39456452 14 6 C13.67 6.66 13.34 7.32 13 8 C8.27626146 6.37621488 4.05818166 3.89006982 0 1 C0 0.67 0 0.34 0 0 Z " fill="#D7F0F8" transform="translate(198,74)"/>
<path d="M0 0 C0.66 0 1.32 0 2 0 C1.57045059 6.25107435 0.98598493 12.04204521 -1 18 C-1.33 18 -1.66 18 -2 18 C-2.20190089 11.64012196 -1.6277833 6.14778871 0 0 Z " fill="#4B6FA5" transform="translate(223,225)"/>
<path d="M0 0 C0.66 0 1.32 0 2 0 C2.268125 1.134375 2.53625 2.26875 2.8125 3.4375 C3.204375 4.613125 3.59625 5.78875 4 7 C4.99 7.33 5.98 7.66 7 8 C7.33 10.31 7.66 12.62 8 15 C5.52733876 12.73762373 3.936134 10.42546667 2.3125 7.5 C1.65701172 6.33984375 1.65701172 6.33984375 0.98828125 5.15625 C0 3 0 3 0 0 Z " fill="#4368A5" transform="translate(170,246)"/>
<path d="M0 0 C2.9375 0.4375 2.9375 0.4375 5.9375 3.4375 C-0.4975 3.9325 -0.4975 3.9325 -7.0625 4.4375 C-3.0625 0.4375 -3.0625 0.4375 0 0 Z " fill="#D7E7F9" transform="translate(407.0625,190.5625)"/>
<path d="M0 0 C0.63671875 1.83203125 0.63671875 1.83203125 1 4 C-1.62685275 7.22727623 -3.74780225 9.52753358 -8 10 C-6.34908222 5.70761377 -3.26245434 3.1206085 0 0 Z " fill="#52637C" transform="translate(352,167)"/>
<path d="M0 0 C0.66 0 1.32 0 2 0 C0.58707905 4.8274799 -1.42974154 8.7162359 -4 13 C-4.33 13 -4.66 13 -5 13 C-5.63175608 7.81960013 -4.25817319 5.33121642 -1.2890625 1.3203125 C-0.86367188 0.88460937 -0.43828125 0.44890625 0 0 Z " fill="#5679AE" transform="translate(262,125)"/>
<path d="M0 0 C-1.40973503 3.52433757 -2.60815884 4.44944404 -6 6 C-7.68889872 7.3050581 -9.3603279 8.63360658 -11 10 C-10.62207203 7.32543283 -10.20233084 6.19388186 -8.22265625 4.296875 C-7.50980469 3.78640625 -6.79695313 3.2759375 -6.0625 2.75 C-5.35222656 2.22921875 -4.64195313 1.7084375 -3.91015625 1.171875 C-2 0 -2 0 0 0 Z " fill="#3A5FA9" transform="translate(91,124)"/>
<path d="M0 0 C1.74216797 0.02707031 1.74216797 0.02707031 3.51953125 0.0546875 C4.39996094 0.07789062 5.28039062 0.10109375 6.1875 0.125 C6.1875 0.455 6.1875 0.785 6.1875 1.125 C3.75068413 1.62854867 1.31314561 2.12796756 -1.125 2.625 C-2.16043945 2.83962891 -2.16043945 2.83962891 -3.21679688 3.05859375 C-6.13774773 3.65125044 -8.82358122 4.125 -11.8125 4.125 C-11.8125 3.465 -11.8125 2.805 -11.8125 2.125 C-7.73526266 0.17468308 -4.49557578 -0.09081971 0 0 Z " fill="#E5F6FB" transform="translate(325.8125,66.875)"/>
<path d="M0 0 C1.1484375 1.578125 1.1484375 1.578125 2 4 C1.1015625 7.234375 1.1015625 7.234375 -0.375 10.75 C-0.85710937 11.92046875 -1.33921875 13.0909375 -1.8359375 14.296875 C-2.22007812 15.18890625 -2.60421875 16.0809375 -3 17 C-3.33 17 -3.66 17 -4 17 C-4.21278058 12.53160785 -3.59138085 9.17737474 -2 5 C-1.34 5 -0.68 5 0 5 C0 3.35 0 1.7 0 0 Z " fill="#D0EBF5" transform="translate(208,171)"/>
<path d="M0 0 C1.32 0.33 2.64 0.66 4 1 C1.36 3.97 -1.28 6.94 -4 10 C-4.33 8.68 -4.66 7.36 -5 6 C-4.01 5.67 -3.02 5.34 -2 5 C-2 4.34 -2 3.68 -2 3 C-1.34 3 -0.68 3 0 3 C0 2.01 0 1.02 0 0 Z " fill="#DAF2FA" transform="translate(247,107)"/>
<path d="M0 0 C0 0.66 0 1.32 0 2 C-4.95 4.475 -4.95 4.475 -10 7 C-10.33 6.01 -10.66 5.02 -11 4 C-7.5224005 1.03760042 -4.56330809 0 0 0 Z " fill="#4E72AD" transform="translate(216,106)"/>
<path d="M0 0 C5.52677733 -0.19392201 9.75614911 0.2520497 15 2 C15 2.33 15 2.66 15 3 C12.87561661 3.08078641 10.7503677 3.13909141 8.625 3.1875 C7.44164062 3.22230469 6.25828125 3.25710938 5.0390625 3.29296875 C3.53472656 3.14794922 3.53472656 3.14794922 2 3 C1.34 2.01 0.68 1.02 0 0 Z " fill="#CECECE" transform="translate(164,375)"/>
<path d="M0 0 C3.3520486 1.30357446 5.56383707 3.49408286 8.25 5.875 C7.92 6.535 7.59 7.195 7.25 7.875 C6.59 7.875 5.93 7.875 5.25 7.875 C3.58333333 6.20833333 1.91666667 4.54166667 0.25 2.875 C-1.91620544 1.57980005 -1.91620544 1.57980005 -3.75 0.875 C-1.75 -0.125 -1.75 -0.125 0 0 Z " fill="#5886CA" transform="translate(413.75,199.125)"/>
<path d="M0 0 C0.7425 0.0825 1.485 0.165 2.25 0.25 C1.26 0.745 1.26 0.745 0.25 1.25 C-0.059375 1.889375 -0.36875 2.52875 -0.6875 3.1875 C-1.75 5.25 -1.75 5.25 -4.75 7.25 C-4.75 6.59 -4.75 5.93 -4.75 5.25 C-5.41 4.92 -6.07 4.59 -6.75 4.25 C-3.42692308 0.31153846 -3.42692308 0.31153846 0 0 Z " fill="#5685C6" transform="translate(120.75,166.75)"/>
<path d="M0 0 C0.66 0.33 1.32 0.66 2 1 C-0.35684596 4.34920216 -3.06799526 7.14723863 -6 10 C-6.375 7.25 -6.375 7.25 -6 4 C-3 1.625 -3 1.625 0 0 Z " fill="#5990DA" transform="translate(236,129)"/>
<path d="M0 0 C0.33 0 0.66 0 1 0 C0.50269348 4.97306516 -0.55302334 8.63799813 -3 13 C-3.33 13 -3.66 13 -4 13 C-3.50269348 8.02693484 -2.44697666 4.36200187 0 0 Z " fill="#415778" transform="translate(413,248)"/>
<path d="M0 0 C2 2 2 2 2.1171875 3.875 C1.99730469 4.926875 1.99730469 4.926875 1.875 6 C1.81054688 6.70125 1.74609375 7.4025 1.6796875 8.125 C1 10 1 10 -3 12 C-2.01 8.04 -1.02 4.08 0 0 Z " fill="#5E7AA1" transform="translate(29,181)"/>
<path d="M0 0 C0.33 0.66 0.66 1.32 1 2 C1.66 2 2.32 2 3 2 C3.33 4.64 3.66 7.28 4 10 C2.02 10 0.04 10 -2 10 C-0.68 9.67 0.64 9.34 2 9 C1.525625 8.21625 1.05125 7.4325 0.5625 6.625 C-0.33898023 5.11051322 -1.21179485 3.5764103 -2 2 C-1.34 2 -0.68 2 0 2 C0 1.34 0 0.68 0 0 Z " fill="#5B7CAC" transform="translate(395,176)"/>
<path d="M0 0 C0.66 0.33 1.32 0.66 2 1 C-2.46825784 4.60636039 -6.32146365 7.58036591 -12 9 C-8.33494586 5.00175912 -4.88887148 2.39831431 0 0 Z " fill="#4068B8" transform="translate(98,117)"/>
<path d="M0 0 C2.86274764 2.86274764 2.9615008 6.10388111 3 10 C2.0625 12.5 2.0625 12.5 1 14 C0 13 0 13 -0.09765625 10.05859375 C-0.08605469 8.86363281 -0.07445312 7.66867187 -0.0625 6.4375 C-0.05347656 5.23996094 -0.04445313 4.04242188 -0.03515625 2.80859375 C-0.02355469 1.88175781 -0.01195312 0.95492188 0 0 Z " fill="#373E46" transform="translate(265,258)"/>
<path d="M0 0 C0.66 0 1.32 0 2 0 C2 2.64 2 5.28 2 8 C1.34 8 0.68 8 0 8 C-1.62514468 9.45833358 -1.62514468 9.45833358 -3 11 C-2.69217504 9.35328588 -2.37860766 7.70764424 -2.0625 6.0625 C-1.88847656 5.14597656 -1.71445313 4.22945312 -1.53515625 3.28515625 C-1 1 -1 1 0 0 Z " fill="#496CA3" transform="translate(218,251)"/>
<path d="M0 0 C0.66 0 1.32 0 2 0 C1.32829194 3.8063457 0.27253436 7.35206816 -1 11 C-1.66 10.34 -2.32 9.68 -3 9 C-2.53846154 2.53846154 -2.53846154 2.53846154 0 0 Z " fill="#47689B" transform="translate(33,174)"/>
<path d="M0 0 C-1.28935919 1.14842923 -2.58156579 2.29366227 -3.875 3.4375 C-4.59429687 4.07558594 -5.31359375 4.71367187 -6.0546875 5.37109375 C-8 7 -8 7 -10 8 C-9.67 6.35 -9.34 4.7 -9 3 C-8.01 3 -7.02 3 -6 3 C-6 2.01 -6 1.02 -6 0 C-3.50907189 -1.24546405 -2.58919267 -0.7767578 0 0 Z " fill="#D8EEF7" transform="translate(120,167)"/>
<path d="M0 0 C1.32 0.33 2.64 0.66 4 1 C-0.30972626 5.09949571 -2.85310727 6.63118644 -9 7 C-7 4 -7 4 -3.875 3.3125 C-2.92625 3.209375 -1.9775 3.10625 -1 3 C-0.67 2.01 -0.34 1.02 0 0 Z " fill="#324C7B" transform="translate(300,155)"/>
<path d="M0 0 C0.66 0.33 1.32 0.66 2 1 C-0.31 3.64 -2.62 6.28 -5 9 C-5.99 8.34 -6.98 7.68 -8 7 C-5.36 4.69 -2.72 2.38 0 0 Z " fill="#5C78A0" transform="translate(288,147)"/>
<path d="M0 0 C0.66 0 1.32 0 2 0 C2 2.97 2 5.94 2 9 C1.67 7.68 1.34 6.36 1 5 C-0.32 5.33 -1.64 5.66 -3 6 C-3 6.66 -3 7.32 -3 8 C-3.66 7.67 -4.32 7.34 -5 7 C-4.21654285 5.82780457 -3.42297164 4.66236332 -2.625 3.5 C-2.18414062 2.8503125 -1.74328125 2.200625 -1.2890625 1.53125 C-0.65097656 0.77328125 -0.65097656 0.77328125 0 0 Z " fill="#658DC3" transform="translate(384,130)"/>
<path d="M0 0 C-1.78809697 1.17213045 -3.58059125 2.33755526 -5.375 3.5 C-6.37273437 4.1496875 -7.37046875 4.799375 -8.3984375 5.46875 C-11 7 -11 7 -13 7 C-13 6.34 -13 5.68 -13 5 C-12.01 5 -11.02 5 -10 5 C-10 4.34 -10 3.68 -10 3 C-9.34 3 -8.68 3 -8 3 C-8 2.34 -8 1.68 -8 1 C-3.375 -1.125 -3.375 -1.125 0 0 Z " fill="#DDF3FA" transform="translate(99,99)"/>
<path d="M0 0 C0.33 0 0.66 0 1 0 C1 2.97 1 5.94 1 9 C0.34 8.67 -0.32 8.34 -1 8 C-1.99 9.32 -2.98 10.64 -4 12 C-4.66 11.67 -5.32 11.34 -6 11 C-5.47599609 10.18595703 -5.47599609 10.18595703 -4.94140625 9.35546875 C-4.25884766 8.28232422 -4.25884766 8.28232422 -3.5625 7.1875 C-3.11003906 6.47980469 -2.65757812 5.77210938 -2.19140625 5.04296875 C-0.85913661 2.91865448 -0.85913661 2.91865448 0 0 Z " fill="#426090" transform="translate(218,256)"/>
<path d="M0 0 C0.66 0 1.32 0 2 0 C1.67 3.3 1.34 6.6 1 10 C0.01 10.33 -0.98 10.66 -2 11 C-1.85892253 9.54119891 -1.71197585 8.08296449 -1.5625 6.625 C-1.48128906 5.81289062 -1.40007812 5.00078125 -1.31640625 4.1640625 C-1 2 -1 2 0 0 Z " fill="#4C74B3" transform="translate(191,238)"/>
<path d="M0 0 C2.0622048 -0.054348 4.12482816 -0.09294961 6.1875 -0.125 C7.33605469 -0.14820313 8.48460937 -0.17140625 9.66796875 -0.1953125 C12.91740372 -0.00484152 15.08660521 0.60639873 18 2 C18 2.33 18 2.66 18 3 C15.93722893 2.85805236 13.87478969 2.71127784 11.8125 2.5625 C10.66394531 2.48128906 9.51539063 2.40007812 8.33203125 2.31640625 C5.48401829 2.04596188 2.78789518 1.62478253 0 1 C0 0.67 0 0.34 0 0 Z " fill="#354865" transform="translate(345,176)"/>
<path d="M0 0 C3.00617269 3.00617269 2.59585316 5.82381598 3 10 C0.5625 9.625 0.5625 9.625 -2 9 C-2.33 8.34 -2.66 7.68 -3 7 C-2.01 7 -1.02 7 0 7 C0 4.69 0 2.38 0 0 Z " fill="#5A87C6" transform="translate(394,168)"/>
<path d="M0 0 C2 1 2 1 3 3 C0.75 5.0625 0.75 5.0625 -2 7 C-3.32 6.67 -4.64 6.34 -6 6 C-4.02 4.02 -2.04 2.04 0 0 Z " fill="#608BD0" transform="translate(263,96)"/>
<path d="M0 0 C-2.34914492 2.34914492 -3.95679446 2.73140357 -7.125 3.625 C-8.49011719 4.01558594 -8.49011719 4.01558594 -9.8828125 4.4140625 C-10.58148438 4.60742188 -11.28015625 4.80078125 -12 5 C-12 4.01 -12 3.02 -12 2 C-7.82262526 0.40861915 -4.46839215 -0.21278058 0 0 Z " fill="#587CA9" transform="translate(330,69)"/>
<path d="M0 0 C1.65 0 3.3 0 5 0 C5 0.66 5 1.32 5 2 C5.598125 2.103125 6.19625 2.20625 6.8125 2.3125 C9.28243264 3.08876455 10.32251235 4.07088921 12 6 C11.01 6.495 11.01 6.495 10 7 C7.6171875 5.8203125 7.6171875 5.8203125 4.875 4.125 C3.96492187 3.57070312 3.05484375 3.01640625 2.1171875 2.4453125 C1.41851562 1.96835938 0.71984375 1.49140625 0 1 C0 0.67 0 0.34 0 0 Z " fill="#D0ECF7" transform="translate(182,65)"/>
<path d="M0 0 C0.66 0.33 1.32 0.66 2 1 C-1.26503938 4.94525591 -5.06518395 6.85708806 -10 8 C-10.66 7.67 -11.32 7.34 -12 7 C-9.69 6.34 -7.38 5.68 -5 5 C-5 4.34 -5 3.68 -5 3 C-2.625 1.3125 -2.625 1.3125 0 0 Z " fill="#555D67" transform="translate(301,330)"/>
<path d="M0 0 C0.99 0 1.98 0 3 0 C3 0.66 3 1.32 3 2 C2.0409375 2.804375 2.0409375 2.804375 1.0625 3.625 C-1.87203419 7.00416058 -1.70569771 9.58546572 -2 14 C-2.33 14 -2.66 14 -3 14 C-3 12.35 -3 10.7 -3 9 C-3.66 8.67 -4.32 8.34 -5 8 C-4.24266726 6.6589523 -3.46867264 5.32730219 -2.6875 4 C-2.25824219 3.2575 -1.82898438 2.515 -1.38671875 1.75 C-0.70029297 0.88375 -0.70029297 0.88375 0 0 Z " fill="#5586C3" transform="translate(401,207)"/>
<path d="M0 0 C0.66 0 1.32 0 2 0 C0.4169423 4.2742558 -2.50568404 6.26531794 -6 9 C-6 7.68 -6 6.36 -6 5 C-5.01 5 -4.02 5 -3 5 C-2.690625 4.360625 -2.38125 3.72125 -2.0625 3.0625 C-1 1 -1 1 0 0 Z " fill="#4A6287" transform="translate(90,140)"/>
<path d="M0 0 C0.33 0.66 0.66 1.32 1 2 C1.66 2.33 2.32 2.66 3 3 C0.69 4.98 -1.62 6.96 -4 9 C-3.46930939 5.17902761 -2.50298434 2.93828597 0 0 Z " fill="#5989D0" transform="translate(250,108)"/>
<path d="M0 0 C3.37503669 1.1858237 5.64722731 2.27573689 8 5 C4.52176885 6.15941038 2.54104422 5.70820884 -1 5 C-0.34 4.34 0.32 3.68 1 3 C0.67 2.01 0.34 1.02 0 0 Z " fill="#5E8AC4" transform="translate(226,92)"/>
<path d="M0 0 C0.33 0.99 0.66 1.98 1 3 C-1.84936103 6.00765886 -4.23511958 8.27845212 -8 10 C-7.04367001 8.70684939 -6.08486149 7.41553147 -5.125 6.125 C-4.59132813 5.40570313 -4.05765625 4.68640625 -3.5078125 3.9453125 C-2 2 -2 2 0 0 Z " fill="#627A9D" transform="translate(383,254)"/>
<path d="M0 0 C2.51236985 2.40313638 3.95013095 3.78319518 4.09765625 7.3828125 C4.08605469 8.28773438 4.07445312 9.19265625 4.0625 10.125 C4.05347656 11.03507813 4.04445313 11.94515625 4.03515625 12.8828125 C4.02355469 13.58148438 4.01195312 14.28015625 4 15 C3.67 15 3.34 15 3 15 C3 12.03 3 9.06 3 6 C2.01 6 1.02 6 0 6 C0 4.02 0 2.04 0 0 Z " fill="#608BC8" transform="translate(422,206)"/>
<path d="M0 0 C0.66 0 1.32 0 2 0 C3.625 2.75 3.625 2.75 5 6 C4.1875 8.375 4.1875 8.375 3 10 C0.96564469 6.27034861 0 4.33094958 0 0 Z " fill="#6188BD" transform="translate(159,197)"/>
<path d="M0 0 C2.44553939 3.66830909 2.95607424 6.63377915 3 11 C2.0625 13.5 2.0625 13.5 1 15 C0.15318867 9.91913204 -0.09038099 5.15171623 0 0 Z " fill="#6F99CE" transform="translate(392,157)"/>
<path d="M0 0 C7.50769231 0.61538462 7.50769231 0.61538462 10 2.5625 C10.33 3.036875 10.66 3.51125 11 4 C8 5 8 5 5.95703125 4.22265625 C5.24933594 3.83980469 4.54164063 3.45695313 3.8125 3.0625 C3.09707031 2.68222656 2.38164062 2.30195313 1.64453125 1.91015625 C1.10183594 1.60980469 0.55914062 1.30945313 0 1 C0 0.67 0 0.34 0 0 Z " fill="#4A77C6" transform="translate(356,149)"/>
<path d="M0 0 C0.99 0.33 1.98 0.66 3 1 C0.36 3.64 -2.28 6.28 -5 9 C-5.66 8.01 -6.32 7.02 -7 6 C-6.01 6 -5.02 6 -4 6 C-4 5.01 -4 4.02 -4 3 C-3.01 3 -2.02 3 -1 3 C-0.67 2.01 -0.34 1.02 0 0 Z " fill="#D4EBF6" transform="translate(259,97)"/>
<path d="M0 0 C0.66 0 1.32 0 2 0 C0.34832443 3.5786304 -1.78286492 6.74820188 -4 10 C-4.66 9.01 -5.32 8.02 -6 7 C-5.04882866 5.8274869 -4.08882991 4.66212985 -3.125 3.5 C-2.59132813 2.8503125 -2.05765625 2.200625 -1.5078125 1.53125 C-0.76144531 0.77328125 -0.76144531 0.77328125 0 0 Z " fill="#76797C" transform="translate(319,314)"/>
<path d="M0 0 C1.60080151 4.00200378 0.29279692 7.04556236 -1 11 C-1.33 11 -1.66 11 -2 11 C-2.33 8.03 -2.66 5.06 -3 2 C-2.01 1.34 -1.02 0.68 0 0 Z " fill="#416093" transform="translate(29,191)"/>
<path d="M0 0 C0.99 0.33 1.98 0.66 3 1 C2.67 2.98 2.34 4.96 2 7 C1.01 7.33 0.02 7.66 -1 8 C-1.33 8.66 -1.66 9.32 -2 10 C-1.54177532 6.53058454 -1.10868317 3.32604951 0 0 Z " fill="#5F8FCF" transform="translate(204,188)"/>
<path d="M0 0 C-1.5830577 4.2742558 -4.50568404 6.26531794 -8 9 C-8 6 -8 6 -6.7578125 4.39453125 C-5.94957031 3.61142578 -5.94957031 3.61142578 -5.125 2.8125 C-4.59132813 2.28269531 -4.05765625 1.75289062 -3.5078125 1.20703125 C-2 0 -2 0 0 0 Z " fill="#335284" transform="translate(115,184)"/>
<path d="M0 0 C0.33 0.66 0.66 1.32 1 2 C0.00390625 4.3828125 0.00390625 4.3828125 -1.4375 7.125 C-1.91058594 8.03507813 -2.38367187 8.94515625 -2.87109375 9.8828125 C-3.24363281 10.58148438 -3.61617187 11.28015625 -4 12 C-4.33 12 -4.66 12 -5 12 C-4.58525633 6.71201818 -3.64775386 3.88309282 0 0 Z " fill="#4269AC" transform="translate(52,166)"/>
<path d="M0 0 C0 0.66 0 1.32 0 2 C-6.45 6.09326923 -6.45 6.09326923 -9.234375 5.62109375 C-9.81703125 5.41613281 -10.3996875 5.21117187 -11 5 C-9.54462432 4.16151196 -8.08559627 3.32936066 -6.625 2.5 C-5.81289062 2.0359375 -5.00078125 1.571875 -4.1640625 1.09375 C-2 0 -2 0 0 0 Z " fill="#CDDEE8" transform="translate(180,129)"/>
<path d="M0 0 C0.33 0 0.66 0 1 0 C1 2.97 1 5.94 1 9 C1.99 9.33 2.98 9.66 4 10 C2.35 10.66 0.7 11.32 -1 12 C-0.67 8.04 -0.34 4.08 0 0 Z " fill="#556F99" transform="translate(168,123)"/>
<path d="M0 0 C1 3 1 3 0.1875 5 C-0.82159687 6.69953157 -1.90361657 8.35542486 -3 10 C-3.66 10 -4.32 10 -5 10 C-3.84414715 6.08788267 -2.64465038 3.1254959 0 0 Z " fill="#D3E7F0" transform="translate(266,123)"/>
<path d="M0 0 C1.13732426 3.40401948 0.83989957 5.77456664 0.0625 9.25 C-0.13214844 10.14203125 -0.32679688 11.0340625 -0.52734375 11.953125 C-0.68332031 12.62859375 -0.83929688 13.3040625 -1 14 C-1.33 14 -1.66 14 -2 14 C-2.33 11.69 -2.66 9.38 -3 7 C-2.34 7 -1.68 7 -1 7 C-1.020625 6.030625 -1.04125 5.06125 -1.0625 4.0625 C-1 1 -1 1 0 0 Z " fill="#7B99BD" transform="translate(227,216)"/>
<path d="M0 0 C0.66 0.33 1.32 0.66 2 1 C0.76302083 2.46484375 -0.47395833 3.9296875 -1.7109375 5.39453125 C-2.89201099 6.8655046 -3.95358529 8.43037794 -5 10 C-5.66 10 -6.32 10 -7 10 C-5.6062718 5.56541027 -3.39417765 3.12621626 0 0 Z " fill="#5F86BE" transform="translate(397,200)"/>
<path d="M0 0 C2.50037734 2.17424117 3.43628586 3.73045798 4 7 C3.01 7.33 2.02 7.66 1 8 C-1.125 3.375 -1.125 3.375 0 0 Z " fill="#608BC6" transform="translate(149,177)"/>
<path d="M0 0 C0.99 0.33 1.98 0.66 3 1 C2.01 4.3 1.02 7.6 0 11 C-0.33 11 -0.66 11 -1 11 C-1.125 3.375 -1.125 3.375 0 0 Z " fill="#6886B4" transform="translate(239,171)"/>
<path d="M0 0 C0.33 0.99 0.66 1.98 1 3 C-0.98 4.98 -2.96 6.96 -5 9 C-5.66 8.67 -6.32 8.34 -7 8 C-5.625 5.5 -5.625 5.5 -4 3 C-3.34 3 -2.68 3 -2 3 C-2 2.34 -2 1.68 -2 1 C-1.34 0.67 -0.68 0.34 0 0 Z " fill="#5183DB" transform="translate(383,135)"/>
<path d="M0 0 C0.66 0.66 1.32 1.32 2 2 C1.69903201 6.13830989 1.32101984 8.51847024 -1 12 C-1.14285714 3.42857143 -1.14285714 3.42857143 0 0 Z " fill="#5A7CAC" transform="translate(233,188)"/>
<path d="M0 0 C-1 3 -1 3 -4.0625 4.6875 C-5.031875 5.120625 -6.00125 5.55375 -7 6 C-7.66 5.34 -8.32 4.68 -9 4 C-2.25 0 -2.25 0 0 0 Z " fill="#6383B0" transform="translate(299,142)"/>
<path d="M0 0 C2.9375 1.1875 2.9375 1.1875 3.9375 3.1875 C0.9675 2.8575 -2.0025 2.5275 -5.0625 2.1875 C-5.0625 1.5275 -5.0625 0.8675 -5.0625 0.1875 C-3.0625 -0.8125 -3.0625 -0.8125 0 0 Z " fill="#6D97D1" transform="translate(368.0625,139.8125)"/>
<path d="M0 0 C2 1 2 1 2 1 Z M0 2 C-3.72965139 4.03435531 -5.66905042 5 -10 5 C-10 4.34 -10 3.68 -10 3 C-3.71428571 0.57142857 -3.71428571 0.57142857 0 2 Z " fill="#363F4B" transform="translate(291,337)"/>
<path d="M0 0 C0.33 0 0.66 0 1 0 C1.390625 5.95703125 1.390625 5.95703125 1 8 C-0.32 8.99 -1.64 9.98 -3 11 C-2.01 7.37 -1.02 3.74 0 0 Z " fill="#696E73" transform="translate(79,261)"/>
<path d="M0 0 C0.66 0.33 1.32 0.66 2 1 C0.68 4.96 -0.64 8.92 -2 13 C-2.33 13 -2.66 13 -3 13 C-2.88557539 11.39504433 -2.75805306 9.79101881 -2.625 8.1875 C-2.55539063 7.29417969 -2.48578125 6.40085938 -2.4140625 5.48046875 C-2 3 -2 3 0 0 Z " fill="#E2F2F9" transform="translate(30,175)"/>
<path d="M0 0 C0 3.58912412 -0.66436554 4.10857029 -3 6.6875 C-3.556875 7.31011719 -4.11375 7.93273437 -4.6875 8.57421875 C-5.120625 9.04472656 -5.55375 9.51523438 -6 10 C-6.33 9.34 -6.66 8.68 -7 8 C-6.21366078 6.85050412 -5.42073742 5.70551011 -4.625 4.5625 C-4.18414062 3.92441406 -3.74328125 3.28632813 -3.2890625 2.62890625 C-2 1 -2 1 0 0 Z " fill="#4572BF" transform="translate(52,144)"/>
<path d="M0 0 C0.66 0.33 1.32 0.66 2 1 C0.02 3.97 -1.96 6.94 -4 10 C-4.33 8.68 -4.66 7.36 -5 6 C-4.34 5.01 -3.68 4.02 -3 3 C-2.34 3 -1.68 3 -1 3 C-0.67 2.01 -0.34 1.02 0 0 Z " fill="#DFF2F9" transform="translate(51,137)"/>
<path d="M0 0 C2.31 0.33 4.62 0.66 7 1 C3.375 4 3.375 4 0 4 C0 2.68 0 1.36 0 0 Z " fill="#446FC3" transform="translate(221,97)"/>
<path d="M0 0 C-3.63 1.98 -7.26 3.96 -11 6 C-8.56528347 1.13056693 -5.58424025 -1.86141342 0 0 Z " fill="#567DB6" transform="translate(316,76)"/>
<path d="M0 0 C0.66 0.33 1.32 0.66 2 1 C0.35 2.98 -1.3 4.96 -3 7 C-3.99 6.67 -4.98 6.34 -6 6 C-6 5.34 -6 4.68 -6 4 C-4.03852126 2.61061923 -2.03833424 1.2739589 0 0 Z " fill="#D1D7DC" transform="translate(308,262)"/>
<path d="M0 0 C0.33 0 0.66 0 1 0 C1 2.97 1 5.94 1 9 C0.34 9 -0.32 9 -1 9 C-1.33 9.66 -1.66 10.32 -2 11 C-1.125 3.375 -1.125 3.375 0 0 Z " fill="#7B9CC2" transform="translate(192,229)"/>
<path d="M0 0 C0.33 0 0.66 0 1 0 C1.36630156 3.93774177 1.30233203 5.56539771 -1 8.875 C-1.66 9.57625 -2.32 10.2775 -3 11 C-2.32829194 7.1936543 -1.27253436 3.64793184 0 0 Z " fill="#637486" transform="translate(258,182)"/>
<path d="M0 0 C-2.64 1.65 -5.28 3.3 -8 5 C-7 1 -7 1 -5.125 -0.3125 C-3 -1 -3 -1 0 0 Z " fill="#4C7BD3" transform="translate(102,115)"/>
<path d="M0 0 C2.64 0.33 5.28 0.66 8 1 C8.33 1.99 8.66 2.98 9 4 C6.69 3.34 4.38 2.68 2 2 C1.67 2.99 1.34 3.98 1 5 C0.67 3.35 0.34 1.7 0 0 Z " fill="#558CE2" transform="translate(169,62)"/>
<path d="M0 0 C-1.39332574 3.36720387 -2.9789286 4.9859524 -6 7 C-6 4 -6 4 -4.125 1.8125 C-2 0 -2 0 0 0 Z " fill="#404C5E" transform="translate(398,276)"/>
<path d="M0 0 C0.66 0 1.32 0 2 0 C4.1875 2.3125 4.1875 2.3125 6 5 C5.67 5.99 5.34 6.98 5 8 C0 2.25 0 2.25 0 0 Z " fill="#4267A1" transform="translate(179,263)"/>
<path d="M0 0 C0.66 0.33 1.32 0.66 2 1 C-1.465 3.97 -1.465 3.97 -5 7 C-5.33 6.01 -5.66 5.02 -6 4 C-4.02 2.68 -2.04 1.36 0 0 Z " fill="#425D89" transform="translate(379,261)"/>
<path d="M0 0 C1.32 0.33 2.64 0.66 4 1 C1.69 2.65 -0.62 4.3 -3 6 C-2 2 -2 2 0 0 Z " fill="#DBE7EF" transform="translate(371,263)"/>
<path d="M0 0 C2.475 0.495 2.475 0.495 5 1 C4.67 1.99 4.34 2.98 4 4 C3.01 4.33 2.02 4.66 1 5 C0.67 3.35 0.34 1.7 0 0 Z " fill="#44494F" transform="translate(311,255)"/>
<path d="M0 0 C0.66 0 1.32 0 2 0 C0.99806563 3.79303725 0.18975773 6.71536341 -2 10 C-2.17942163 6.05272412 -2.09350689 3.4019487 0 0 Z " fill="#5C7596" transform="translate(416,241)"/>
<path d="M0 0 C0.6875 1.75 0.6875 1.75 1 4 C-0.4375 6.25 -0.4375 6.25 -2 8 C-2.66 6.35 -3.32 4.7 -4 3 C-2.68 2.67 -1.36 2.34 0 2 C0 1.34 0 0.68 0 0 Z " fill="#C9E4F0" transform="translate(189,240)"/>
<path d="M0 0 C0.66 0.33 1.32 0.66 2 1 C1.34 4.63 0.68 8.26 0 12 C-0.33 12 -0.66 12 -1 12 C-1.02687279 10.18757948 -1.04633715 8.37504767 -1.0625 6.5625 C-1.07410156 5.55316406 -1.08570313 4.54382813 -1.09765625 3.50390625 C-1 1 -1 1 0 0 Z " fill="#5C80B5" transform="translate(419,227)"/>
<path d="M0 0 C2.8125 -0.25 2.8125 -0.25 6 0 C7.875 2 7.875 2 9 4 C8.67 4.66 8.34 5.32 8 6 C7.236875 5.38125 6.47375 4.7625 5.6875 4.125 C3.00374191 1.94402948 3.00374191 1.94402948 0 0 Z " fill="#A4CBF3" transform="translate(412,198)"/>
<path d="M0 0 C0.33 0 0.66 0 1 0 C1 2.31 1 4.62 1 7 C-0.32 7.33 -1.64 7.66 -3 8 C-1.125 2.25 -1.125 2.25 0 0 Z " fill="#78A9D9" transform="translate(216,158)"/>
<path d="M0 0 C0 3 0 3 -1.3125 4.38671875 C-2.875 5.59114583 -4.4375 6.79557292 -6 8 C-4.52307692 2.33846154 -4.52307692 2.33846154 -1.875 0.625 C-0.946875 0.315625 -0.946875 0.315625 0 0 Z " fill="#33528A" transform="translate(58,162)"/>
<path d="M0 0 C0.6875 1.8125 0.6875 1.8125 1 4 C-0.3125 5.75 -0.3125 5.75 -2 7 C-2.66 7 -3.32 7 -4 7 C-2.79618552 4.50638429 -1.54571278 2.31856917 0 0 Z " fill="#D6E2EA" transform="translate(77,157)"/>
<path d="M0 0 C0.8125 1.625 0.8125 1.625 1 4 C-0.46818136 6.24609835 -2.15852858 8.02378677 -4 10 C-4 5.75354935 -2.18249194 3.61475228 0 0 Z " fill="#446FB9" transform="translate(44,154)"/>
<path d="M0 0 C0 0.66 0 1.32 0 2 C-4.35294118 6 -4.35294118 6 -8 6 C-8 5.34 -8 4.68 -8 4 C-2.58823529 0 -2.58823529 0 0 0 Z " fill="#2A4066" transform="translate(212,275)"/>
<path d="M0 0 C0.66 0 1.32 0 2 0 C1.6875 2.375 1.6875 2.375 1 5 C0.01 5.66 -0.98 6.32 -2 7 C-1.125 1.125 -1.125 1.125 0 0 Z " fill="#2D405A" transform="translate(257,190)"/>
<path d="M0 0 C0.66 0.33 1.32 0.66 2 1 C1.01 3.97 0.02 6.94 -1 10 C-2.10191901 5.59232396 -1.58706842 4.1077065 0 0 Z " fill="#DCF0F8" transform="translate(202,188)"/>
<path d="M0 0 C0.75 1.75 0.75 1.75 1 4 C-0.9375 6.25 -0.9375 6.25 -3 8 C-3 6.35 -3 4.7 -3 3 C-2.01 2.67 -1.02 2.34 0 2 C0 1.34 0 0.68 0 0 Z " fill="#364D70" transform="translate(262,179)"/>
</svg>
